SplineFontDB: 3.0
FontName: Prociono-Regular
FullName: Prociono Regular
FamilyName: Prociono
Weight: Regular
Copyright: This font has been released into the public domain by its author, Barry Schwartz. This applies worldwide.\n\nIn some countries this may not be legally possible; if so:\nBarry Schwartz grants anyone the right to use this work for any purpose, without any conditions, unless such conditions are required by law.
Version: 2.2
ItalicAngle: 0
UnderlinePosition: -100
UnderlineWidth: 50
Ascent: 797
Descent: 203
sfntRevision: 0x00023333
LayerCount: 2
Layer: 0 0 "Back"  1
Layer: 1 0 "Fore"  0
NeedsXUIDChange: 1
XUID: [1021 658 797806517 9773845]
FSType: 0
OS2Version: 3
OS2_WeightWidthSlopeOnly: 0
OS2_UseTypoMetrics: 1
CreationTime: 1167379177
ModificationTime: 1278214392
PfmFamily: 17
TTFWeight: 400
TTFWidth: 5
LineGap: 100
VLineGap: 0
Panose: 2 0 5 3 0 0 0 0 0 0
OS2TypoAscent: 0
OS2TypoAOffset: 1
OS2TypoDescent: 0
OS2TypoDOffset: 1
OS2TypoLinegap: 0
OS2WinAscent: 0
OS2WinAOffset: 1
OS2WinDescent: -1
OS2WinDOffset: 1
HheadAscent: 0
HheadAOffset: 1
HheadDescent: 1
HheadDOffset: 1
OS2SubXSize: 650
OS2SubYSize: 700
OS2SubXOff: 0
OS2SubYOff: 480
OS2SupXSize: 650
OS2SupYSize: 700
OS2SupXOff: 0
OS2SupYOff: 0
OS2StrikeYSize: 49
OS2StrikeYPos: 258
OS2Vendor: 'PfEd'
OS2CodePages: 00000012.00000000
OS2UnicodeRanges: 8000006f.40000042.00000000.00000000
Lookup: 1 0 0 "Single Substitution in Latin lookup 0"  {"Single Substitution in Latin lookup 0 subtable"  } ['CAPS' ('DFLT' <'dflt' > 'latn' <'dflt' > ) ]
Lookup: 1 0 0 "'salt' Stylistic Alternatives in Latin lookup 1"  {"'salt' Stylistic Alternatives in Latin lookup 1 subtable"  } ['salt' ('DFLT' <'dflt' > 'latn' <'dflt' > ) ]
Lookup: 1 0 0 "'ss01' Style Set 1 in Latin lookup 2"  {"'ss01' Style Set 1 in Latin lookup 2 subtable"  } ['ss01' ('DFLT' <'dflt' > 'latn' <'dflt' > ) ]

StartChar: .notdef
Encoding: 65536 -1 0
Width: 500
Flags: W
HStem: 0 50<100 400> 481 50<100 400>
VStem: 50 50<50 481> 400 50<50 481>
LayerCount: 2
Fore
SplineSet
50 0 m 1
 50 531 l 1
 450 531 l 1
 450 0 l 1
 50 0 l 1
100 50 m 1
 400 50 l 1
 400 481 l 1
 100 481 l 1
 100 50 l 1
EndSplineSet
EndChar

StartChar: exclam
Encoding: 33 33 2
Width: 240
GlyphClass: 2
Flags: HW
HStem: -10 158<83.3248 136.045>
VStem: 56 114<21.5844 109.25> 69 114<494.728 745.162> 96 33<202 321.507>
LayerCount: 2
Fore
SplineSet
69 742 m 1xa0
 104 747 144 753 171 759 c 1
 183 748 l 1xa0
 167 548 143 270 129 196 c 1
 96 202 l 1x90
 91 286 l 2
 83 428 69 701 69 742 c 1xa0
EndSplineSet
Refer: 15 46 S 1 0 0 1 -7 0 2
EndChar

StartChar: numbersign
Encoding: 35 35 4
Width: 487
GlyphClass: 2
Flags: W
HStem: 163 44<57 131 189 284 338 417> 301 45<76 144 206 298 354 437>
VStem: 144 56<241.818 300> 152 54<346 467.521> 298 51<286.833 301 348 450.766>
LayerCount: 2
Fore
SplineSet
48 163 m 1xd8
 57 207 l 1
 135 207 l 1
 144 300 l 1xe8
 67 300 l 1
 76 344 l 1
 152 344 l 1
 156 375 164 451 164 475 c 1
 176 481 233 485 233 485 c 1
 223 455 211 401 206 346 c 1
 302 346 l 1
 306 377 314 453 314 477 c 1
 326 483 380 485 380 485 c 1
 371 455 359 403 354 348 c 1
 447 348 l 1
 437 302 l 1
 349 302 l 1
 337 211 l 1
 426 211 l 1
 417 163 l 1
 338 163 l 1
 331 132 327 69 327 15 c 1
 315 9 264 4 264 4 c 1
 272 47 280 119 284 162 c 1
 184 162 l 1
 177 131 174 71 174 16 c 1
 163 10 112 5 112 5 c 1
 119 48 128 121 131 163 c 1
 48 163 l 1xd8
189 208 m 1
 286 208 l 1
 298 301 l 1
 200 301 l 1
 189 208 l 1
EndSplineSet
EndChar

StartChar: dollar
Encoding: 36 36 5
Width: 480
GlyphClass: 2
Flags: W
HStem: -17 65<162.386 215 256 308.642> 465 60<168.528 215 256 304.649>
VStem: 84 67<352.434 438.4> 215 41<-96 -17 48 202 326 465 525 608> 331 65<70.1082 172.557> 335 37<361 424.131>
LayerCount: 2
Fore
SplineSet
84 358 m 0xf8
 84 385 88 412 101 432 c 0
 139 493 167 515 215 522 c 1
 215 608 l 1
 256 608 l 1
 256 525 l 1
 259 525 l 2
 291 525 318 518 341 508 c 0
 356 502 375 495 375 459 c 0
 375 449 372 420 372 361 c 1
 335 361 l 1xf4
 334 375 323 418 310 437 c 0
 299 454 278 462 256 465 c 1
 256 311 l 1
 322 288 396 260 396 158 c 0
 396 130 394 102 381 80 c 0
 334 5 298 -5 256 -13 c 1
 256 -96 l 1
 215 -96 l 1
 215 -17 l 1
 138 -16 104 3 94 19 c 0
 89 27 86 38 86 53 c 0
 86 162 89 171 113 171 c 0
 147 171 126 117 154 79 c 0
 164 64 183 52 215 48 c 1
 215 216 l 1
 151 238 84 265 84 358 c 0xf8
151 400 m 0
 151 361 178 342 215 326 c 1
 215 465 l 1
 158 457 151 416 151 400 c 0
256 48 m 1
 303 54 331 80 331 122 c 0xf8
 331 167 298 187 256 202 c 1
 256 48 l 1
EndSplineSet
EndChar

StartChar: percent
Encoding: 37 37 6
Width: 697
GlyphClass: 2
Flags: W
HStem: -12 59<475.469 585.344> 216 59<125.469 235.344> 236 60<460.619 570.312> 465 59<111.1 220.266>
VStem: 42 51<307.854 447.802> 252 52<290.07 432.963> 392 51<79.6428 218.701> 602 53<61.9158 204.54>
DStem2: 150 -3 187 -27 0.547166 0.837024<0.156555 645.143>
LayerCount: 2
Fore
SplineSet
42 369 m 0xdf
 42 428 63 467 91 489 c 0
 120 512 157 524 173 524 c 0
 267 524 304 442 304 367 c 0
 304 350 298 318 292 303 c 0
 285 287 242 216 168 216 c 0
 87 216 42 281 42 369 c 0xdf
93 370 m 0
 93 309 141 275 177 275 c 0
 235 275 252 300 252 367 c 0
 252 429 208 465 169 465 c 0
 138 465 93 463 93 370 c 0
150 -3 m 1
 503 537 l 1
 540 513 l 1
 187 -27 l 1
 150 -3 l 1
392 141 m 0
 392 200 414 239 441 261 c 0
 470 284 507 296 523 296 c 0xbf
 617 296 655 213 655 139 c 0
 655 121 648 89 642 75 c 0
 635 59 592 -12 518 -12 c 0
 437 -12 392 52 392 141 c 0
443 142 m 0
 443 81 491 47 527 47 c 0
 585 47 602 71 602 139 c 0
 602 201 558 236 519 236 c 0
 489 236 443 235 443 142 c 0
EndSplineSet
EndChar

StartChar: ampersand
Encoding: 38 38 7
Width: 780
GlyphClass: 2
Flags: W
HStem: -18 77<228.838 389.177> -4 21G<617.992 662.5> 477 33<516 573.606 676.165 732> 707 59<254.322 375.606>
VStem: 45 99<143.297 285.654> 142 87<555.63 681.572> 393 66<618.965 728.5>
DStem2: 536 222 259 396 0.686837 -0.726812<-247.269 0 66.6995 189.218>
LayerCount: 2
Fore
SplineSet
45 194 m 0xba
 45 255 72 310 111 344 c 0
 140 370 179 400 229 430 c 1
 165 509 142 570 142 617 c 0
 142 691 219 766 322 766 c 0
 430 766 459 746 459 711 c 0
 459 680 448 638 422 584 c 1
 388 592 l 1
 390 604 393 618 393 633 c 0
 393 692 355 707 313 707 c 0
 268 707 229 678 229 626 c 0
 229 553 348 392 536 222 c 1
 571 287 590 359 590 413 c 0
 590 463 568 473 516 477 c 1
 516 510 l 1
 541 508 583 507 624 507 c 0
 666 507 707 508 732 510 c 1
 732 477 l 1
 606 468 674 386 570 191 c 1
 631 138 698 85 770 33 c 1
 770 0 l 1
 721 0 688 0 637 -4 c 1x76
 522 117 l 1
 496 83 466 56 435 35 c 2
 403 13 l 2
 369 -11 353 -18 267 -18 c 0
 198 -18 174 -18 116 38 c 0
 65 87 45 142 45 194 c 0xba
144 221 m 0xba
 144 133 220 59 309 59 c 0
 382 59 443 98 489 152 c 1
 259 396 l 1
 176 343 144 279 144 221 c 0xba
EndSplineSet
EndChar

StartChar: quotesingle
Encoding: 39 39 8
Width: 212
GlyphClass: 2
Flags: W
HStem: 565 232
VStem: 60 92<730.154 795.768> 86 40<565 625.846>
LayerCount: 2
Fore
SplineSet
60 791 m 1xc0
 69 795 87 797 106 797 c 0
 125 797 143 795 152 791 c 1xc0
 126 565 l 1
 86 565 l 1xa0
 60 791 l 1xc0
EndSplineSet
EndChar

StartChar: parenleft
Encoding: 40 40 9
Width: 330
GlyphClass: 2
Flags: W
VStem: 100 95<103.182 489.784>
LayerCount: 2
Fore
SplineSet
100 296 m 0
 100 423 133 554 157 613 c 0
 197 711 307 800 308 802 c 1
 330 780 l 1
 281 707 234 606 225 586 c 0
 201 537 195 410 195 296 c 0
 195 183 201 56 225 6 c 0
 234 -13 281 -114 330 -187 c 1
 308 -209 l 1
 307 -208 197 -118 157 -20 c 0
 133 38 100 172 100 296 c 0
EndSplineSet
EndChar

StartChar: parenright
Encoding: 41 41 10
Width: 330
GlyphClass: 2
Flags: W
VStem: 135 95<103.182 489.784>
LayerCount: 2
Fore
SplineSet
0 -187 m 1
 49 -114 96 -13 105 6 c 0
 129 56 135 183 135 296 c 0
 135 410 129 537 105 586 c 0
 96 606 49 707 0 780 c 1
 22 802 l 1
 23 800 133 711 173 613 c 0
 197 554 230 423 230 296 c 0
 230 172 197 38 173 -20 c 0
 133 -118 23 -208 22 -209 c 1
 0 -187 l 1
EndSplineSet
EndChar

StartChar: asterisk
Encoding: 42 42 11
Width: 520
GlyphClass: 2
Flags: W
HStem: 731 20G<208 302>
LayerCount: 2
Fore
SplineSet
50 554 m 1
 72 633 l 1
 86 641 l 1
 246 564 l 1
 208 749 l 1
 290 751 l 1
 302 741 l 1
 279 565 l 1
 442 659 l 1
 470 581 l 1
 464 566 l 1
 289 535 l 1
 429 408 l 1
 364 357 l 1
 348 359 l 1
 264 515 l 1
 186 343 l 1
 118 389 l 1
 115 405 l 1
 237 533 l 1
 50 554 l 1
EndSplineSet
EndChar

StartChar: plus
Encoding: 43 43 12
Width: 480
GlyphClass: 2
Flags: W
HStem: 250 66<25 208 275 459> 494 20G<208 275>
VStem: 208 66<67 250 316 501>
LayerCount: 2
Fore
SplineSet
11 250 m 1
 25 316 l 1
 208 316 l 1
 208 501 l 1
 264 514 l 1
 275 502 l 1
 274 316 l 1
 460 316 l 1
 472 305 l 1
 459 250 l 1
 275 250 l 1
 274 67 l 1
 208 53 l 1
 208 250 l 1
 11 250 l 1
EndSplineSet
EndChar

StartChar: comma
Encoding: 44 44 13
Width: 240
GlyphClass: 2
Flags: W
HStem: -114 262<95 101>
VStem: 108 69<-19.7337 64>
LayerCount: 2
Fore
SplineSet
68 -98 m 0
 68 -87 108 -54 108 -10 c 0
 108 30 63 64 63 88 c 0
 63 90 95 148 113 148 c 0
 135 148 177 80 177 48 c 0
 177 -4 101 -114 83 -114 c 0
 81 -114 68 -106 68 -98 c 0
EndSplineSet
EndChar

StartChar: hyphen
Encoding: 45 45 14
Width: 270
GlyphClass: 2
Flags: W
HStem: 250 66<31 241>
VStem: 17 236
LayerCount: 2
Fore
SplineSet
17 250 m 1
 31 316 l 1
 242 316 l 1
 253 305 l 1
 241 250 l 1
 17 250 l 1
EndSplineSet
EndChar

StartChar: period
Encoding: 46 46 15
Width: 240
GlyphClass: 2
Flags: W
HStem: -10 158<90.3248 143.045>
VStem: 63 114<21.5844 109.25>
LayerCount: 2
Fore
SplineSet
177 60 m 0
 177 39 135 -10 111 -10 c 0
 90 -10 63 76 63 84 c 0
 63 96 89 148 115 148 c 0
 140 148 177 74 177 60 c 0
EndSplineSet
EndChar

StartChar: slash
Encoding: 47 47 16
Width: 480
GlyphClass: 2
Flags: W
HStem: 777 20G<429.203 500>
DStem2: -20 -140 43 -140 0.439915 0.89804<27.7146 1043.38>
LayerCount: 2
Fore
SplineSet
-20 -140 m 1
 439 797 l 1
 500 797 l 1
 43 -140 l 1
 -20 -140 l 1
EndSplineSet
EndChar

StartChar: zero
Encoding: 48 48 17
Width: 480
GlyphClass: 2
Flags: W
HStem: -18 87<180.451 313.083> 439 86<167.874 298.921>
VStem: 30 67<160.551 378.306> 380 70<132.398 346.443>
LayerCount: 2
Fore
SplineSet
30 252 m 0
 30 356 64 425 108 464 c 0
 154 504 213 525 239 525 c 0
 390 525 450 380 450 248 c 0
 450 218 439 161 430 136 c 0
 420 108 351 -18 232 -18 c 0
 102 -18 30 96 30 252 c 0
97 254 m 0
 97 135 182 69 247 69 c 0
 350 69 380 116 380 248 c 0
 380 369 302 439 232 439 c 0
 178 439 97 436 97 254 c 0
EndSplineSet
EndChar

StartChar: one
Encoding: 49 49 18
Width: 480
GlyphClass: 2
Flags: W
HStem: 0 31<92 228.492 365.741 474> 505 20G<316 351>
VStem: 253 98<254.292 409> 259 80<50.8964 408.44>
LayerCount: 2
Fore
SplineSet
60 390 m 1xe0
 110 417 293 516 339 525 c 1xd0
 351 514 l 1xe0
 344 409 339 315 339 203 c 0
 339 174 339 144 340 112 c 0
 342 50 343 35 474 31 c 1
 474 0 l 1
 92 0 l 1
 92 31 l 1
 117 31 l 1
 174 32 251 35 254 76 c 0
 256 90 259 183 259 209 c 0xd0
 259 242 258 268 253 409 c 1
 218 409 174 400 74 360 c 1
 60 390 l 1xe0
EndSplineSet
EndChar

StartChar: two
Encoding: 50 50 19
Width: 480
GlyphClass: 2
Flags: W
HStem: 0 83<245.57 443> 0 76<142 441.138> 451 76<171.873 289.766>
VStem: 322 101<300.331 418.9>
DStem2: 159 147 142 76 0.783939 0.620838<-57.4064 198.394>
LayerCount: 2
Fore
SplineSet
10 29 m 1x70
 45 58 l 1
 159 147 l 2
 252 220 322 283 322 351 c 0
 322 399 305 451 212 451 c 0
 177 451 159 449 75 410 c 1
 61 439 l 1
 183 521 l 1
 198 525 216 527 237 527 c 0
 317 527 423 494 423 377 c 0
 423 282 319 199 234 140 c 1
 182 105 l 2
 166 94 152 84 142 76 c 1x70
 179 75 213 74 242 74 c 0
 318 74 404 79 443 83 c 1xb0
 455 72 l 1
 453 55 451 23 451 0 c 1
 24 0 l 1
 10 29 l 1x70
EndSplineSet
EndChar

StartChar: three
Encoding: 51 51 20
Width: 480
GlyphClass: 2
Flags: W
HStem: -203 51<43 162.09> 171 44<126 206.607> 455 70<156.309 263.455>
VStem: 309 90<304.663 411.31> 319 93<-11.0743 122.663>
LayerCount: 2
Fore
SplineSet
20 -157 m 1xe8
 25 -149 l 1
 38 -151 51 -152 63 -152 c 0
 192 -152 319 -47 319 52 c 0xe8
 319 112 290 171 148 171 c 0
 141 171 134 170 126 170 c 1
 119 214 l 1
 295 242 309 325 309 353 c 0
 309 431 220 455 211 455 c 0
 197 455 148 445 70 401 c 1
 54 429 l 1
 164 517 l 1
 182 522 200 525 219 525 c 0
 305 525 399 470 399 379 c 0xf0
 399 315 360 259 264 215 c 1
 349 213 412 142 412 76 c 0
 412 -52 272 -203 43 -203 c 1
 20 -157 l 1xe8
EndSplineSet
EndChar

StartChar: four
Encoding: 52 52 21
Width: 480
GlyphClass: 2
Flags: W
HStem: 0 82<227 267.248 471.988 483.861> 506 20G<350.5 369>
VStem: 279 90<-192 -3 77 330.411>
LayerCount: 2
Fore
SplineSet
-3 46 m 1
 68 182 l 1
 140 309 241 470 278 515 c 1
 288 519 339 526 362 526 c 1
 369 518 l 1
 369 77 l 1
 403 77 446 80 476 82 c 1
 480 79 481 78 484 75 c 1
 482 59 476 33 466 0 c 1
 444 0 l 2
 421 0 396 0 369 -2 c 1
 370 -125 375 -192 375 -192 c 1
 353 -193 305 -202 287 -207 c 1
 274 -212 l 1
 274 -212 277 -117 278 -3 c 1
 227 -3 70 -3 21 0 c 1
 -3 46 l 1
82 89 m 1
 94 78 l 1
 128 75 162 74 193 74 c 0
 228 74 257 74 279 75 c 1
 282 178 283 257 283 338 c 2
 283 430 l 1
 234 377 107 172 82 89 c 1
EndSplineSet
EndChar

StartChar: five
Encoding: 53 53 22
Width: 480
GlyphClass: 2
Flags: W
HStem: -203 51<45 170.143> 184 84<137 262.899> 425 83<155.344 390>
VStem: 309 100<-14.8283 137.831>
LayerCount: 2
Fore
SplineSet
22 -157 m 1
 27 -149 l 1
 40 -151 53 -152 65 -152 c 0
 194 -152 309 -63 309 36 c 0
 309 178 243 184 152 184 c 2
 96 184 l 1
 75 202 l 1
 75 202 117 464 121 496 c 1
 135 510 l 1
 148 509 174 508 217 508 c 0
 258 508 314 509 390 512 c 1
 402 501 l 1
 398 482 396 441 396 423 c 1
 319 424 275 425 241 425 c 0
 211 425 189 424 159 423 c 1
 152 391 139 303 137 268 c 1
 156 270 166 271 210 271 c 0
 303 271 409 219 409 92 c 0
 409 -94 246 -203 45 -203 c 1
 22 -157 l 1
EndSplineSet
EndChar

StartChar: six
Encoding: 54 54 23
Width: 480
GlyphClass: 2
Flags: W
HStem: -17 53<188.061 315.235> 396 59<179.04 316.946> 747 20G<345.5 388.258>
VStem: 25 97<121.627 365.078 380 436.226> 374 84<123.262 339.779>
DStem2: 215 684 278 669 0.867786 0.496937<-31.9939 180.959>
LayerCount: 2
Fore
SplineSet
25 269 m 0
 25 518 142 629 215 684 c 0
 263 720 315 747 376 767 c 1
 395 736 l 1
 385 732 334 705 295 680 c 2
 278 669 l 1
 212 624 131 500 125 380 c 1
 153 424 189 455 285 455 c 0
 374 455 458 408 458 255 c 0
 458 18 306 -17 235 -17 c 0
 127 -17 25 42 25 269 c 0
120 310 m 0
 120 293 121 275 121 266 c 2
 122 248 l 2
 127 149 143 36 259 36 c 0
 341 36 374 138 374 227 c 0
 374 329 349 369 283 389 c 0
 269 394 253 396 235 396 c 0
 163 396 141 366 121 338 c 1
 121 329 120 320 120 310 c 0
EndSplineSet
EndChar

StartChar: seven
Encoding: 55 55 24
Width: 480
GlyphClass: 2
Flags: W
HStem: 426 82<97.0104 353>
VStem: 40 29<336 372.277>
LayerCount: 2
Fore
SplineSet
40 336 m 1
 43 386 45 415 45 447 c 0
 45 462 45 478 44 496 c 1
 58 510 l 1
 77 509 180 508 279 508 c 0
 356 508 431 509 461 510 c 1
 473 499 l 1
 465 367 216 -78 109 -212 c 1
 99 -208 86 -201 69 -188 c 1
 256 101 323 276 365 415 c 1
 353 426 l 1
 353 426 139 426 113 427 c 1
 105 423 98 412 69 336 c 1
 40 336 l 1
EndSplineSet
EndChar

StartChar: eight
Encoding: 56 56 25
Width: 480
GlyphClass: 2
Flags: W
HStem: -17 54<179.268 311.798> 725 51<171.479 319.955>
VStem: 21 78<116.913 276.334> 44 90<553.278 669.018> 366 78<538.671 679.335> 373 85<110.742 272.207>
DStem2: 259 463 154 403 0.882353 -0.470588<-113.952 -64.4118 -1.878 15.3057 66.2353 169.004>
LayerCount: 2
Fore
SplineSet
21 194 m 0xe4
 21 289 58 348 154 403 c 1
 81 444 44 534 44 576 c 0
 44 690 128 776 241 776 c 0
 372 776 444 704 444 619 c 0xd8
 444 556 403 485 317 431 c 1
 351 414 l 1
 422 376 458 297 458 216 c 0
 458 100 384 -17 237 -17 c 0
 107 -17 21 66 21 194 c 0xe4
99 189 m 0xe4
 99 106 183 37 240 37 c 0
 332 37 373 118 373 194 c 0
 373 280 317 317 259 347 c 2
 219 368 l 1
 133 317 99 262 99 189 c 0xe4
134 627 m 0xd8
 134 563 185 498 259 463 c 1
 326 493 366 543 366 601 c 0
 366 679 321 725 246 725 c 0
 176 725 134 686 134 627 c 0xd8
EndSplineSet
EndChar

StartChar: nine
Encoding: 57 57 26
Width: 480
GlyphClass: 2
Flags: W
HStem: -204 34<45 120.518> 50 52<181.18 310.429> 467 58<173.612 296.72>
VStem: 35 86<170.991 399.403> 356 96<125.562 397.156>
LayerCount: 2
Fore
SplineSet
35 274 m 0
 35 475 152 525 269 525 c 0
 415 525 452 384 452 281 c 0
 452 -149 196 -201 45 -204 c 1
 39 -170 l 1
 210 -146 305 -83 340 87 c 1
 297 61 256 50 219 50 c 0
 113 50 35 141 35 274 c 0
121 301 m 0
 121 196 141 102 261 102 c 0
 304 102 329 113 347 128 c 1
 353 171 356 220 356 276 c 0
 356 320 350 467 233 467 c 0
 175 467 121 416 121 301 c 0
EndSplineSet
EndChar

StartChar: less
Encoding: 60 60 29
Width: 480
GlyphClass: 2
Flags: W
HStem: 502 20G<426.122 483>
DStem2: 87 279 -3 247 0.913573 -0.406675<0 420.353> 11 317 87 279 0.913402 0.407059<53.9503 474.304>
LayerCount: 2
Fore
SplineSet
-3 247 m 1
 11 317 l 1
 471 522 l 1
 483 511 l 1
 471 450 l 1
 87 279 l 1
 471 108 l 1
 483 47 l 1
 471 36 l 1
 -3 247 l 1
EndSplineSet
EndChar

StartChar: equal
Encoding: 61 61 30
Width: 480
GlyphClass: 2
Flags: W
HStem: 172 66<18.5 462.5> 328 66<18.5 462.5>
LayerCount: 2
Fore
SplineSet
4.5 172 m 1
 18.5 238 l 1
 463.5 238 l 1
 475.5 227 l 1
 462.5 172 l 1
 4.5 172 l 1
4.5 328 m 1
 18.5 394 l 1
 463.5 394 l 1
 475.5 383 l 1
 462.5 328 l 1
 4.5 328 l 1
EndSplineSet
EndChar

StartChar: greater
Encoding: 62 62 31
Width: 480
GlyphClass: 2
Flags: W
HStem: 502 20G<-3 53.9289>
DStem2: 9 522 9 450 0.913573 -0.406675<29.2806 449.634> 9 108 9 36 0.913402 0.407059<0 420.353>
LayerCount: 2
Fore
SplineSet
-3 47 m 1
 9 108 l 1
 393 279 l 1
 9 450 l 1
 -3 511 l 1
 9 522 l 1
 483 311 l 1
 469 241 l 1
 9 36 l 1
 -3 47 l 1
EndSplineSet
EndChar

StartChar: question
Encoding: 63 63 32
Width: 445
GlyphClass: 2
Flags: W
HStem: -10 158<83.3248 136.045> 288 70<151.413 277.371> 665 62<128.083 280.55>
VStem: 56 114<21.5844 109.25> 74 25<573 624.26> 96 33<202 312.794> 322 78<402.672 614.945>
LayerCount: 2
Fore
SplineSet
143 315 m 1xea
 138 268 133 217 129 196 c 1
 96 202 l 1xe6
 85 410 l 1
 133 369 171 358 193 358 c 0
 290 358 322 408 322 493 c 0
 322 521 318 552 313 586 c 0
 304 645 280 665 228 665 c 0
 96 665 110 615 99 573 c 1
 74 573 l 1
 72 613 70 643 70 666 c 0
 70 711 87 727 191 727 c 0
 319 727 385 608 387 600 c 0
 395 560 400 521 400 485 c 0
 400 373 356 288 226 288 c 0
 193 288 166 299 143 315 c 1xea
EndSplineSet
Refer: 15 46 S 1 0 0 1 -7 0 2
EndChar

StartChar: at
Encoding: 64 64 33
Width: 920
GlyphClass: 2
Flags: W
HStem: -203 47<353.196 610.951> -13 81<388.89 450.635> -12 61<635.5 706.425> 459 63<432.101 526.58> 683 61<377.961 612.59>
VStem: 20 91<96.3884 372.811> 260 72<141.786 315.975> 811 88<263.51 491.791>
LayerCount: 2
Fore
SplineSet
20 238 m 0xbf
 20 570 284 744 523 744 c 0
 720 744 899 626 899 382 c 0
 899 226 751 -12 652 -12 c 0xbf
 619 -12 584 5 571 100 c 1
 520 51 433 -13 394 -13 c 0xdf
 370 -13 260 22 260 203 c 0
 260 380 413 522 495 522 c 0
 529 522 589 505 618 494 c 1
 653 525 l 1
 675 516 l 1
 654 462 645 150 645 126 c 0
 645 90 651 49 674 49 c 0
 720 49 811 217 811 374 c 0
 811 585 646 683 487 683 c 0
 206 683 111 393 111 225 c 0
 111 28 225 -156 501 -156 c 0
 562 -156 627 -142 667 -133 c 1
 675 -162 l 1
 634 -178 530 -203 473 -203 c 0
 169 -203 20 12 20 238 c 0xbf
332 225 m 0
 332 156 387 68 427 68 c 0xdf
 476 68 534 105 574 156 c 1
 579 215 587 379 587 390 c 1
 539 438 495 459 459 459 c 0
 380 459 332 361 332 225 c 0
EndSplineSet
EndChar

StartChar: A
Encoding: 65 65 34
Width: 755
GlyphClass: 2
Flags: W
HStem: 0 36<0 53.9021 167.266 236 469 544.609 707.32 755> 249 43<222 484> 723 20G<406.5 418.13>
DStem2: 134 210 208 249 0.371391 0.928477<-112.738 63.6935 108.817 462.196>
AnchorPoint: "Anchor-0" 377 738 basechar 0
LayerCount: 2
Fore
SplineSet
0 0 m 1
 0 36 l 1
 60 42 71 53 134 210 c 2
 342 730 l 1
 353 738 403 743 410 743 c 1
 410 743 666 110 673 96 c 0
 689 68 705 43 755 36 c 1
 755 0 l 1
 469 0 l 1
 469 34 l 1
 505 37 558 45 558 78 c 0
 558 98 550 123 537 153 c 2
 518 197 l 2
 511 213 504 230 497 249 c 1
 208 249 l 1
 186 200 146 98 146 83 c 0
 146 50 193 43 236 39 c 1
 236 0 l 1
 0 0 l 1
222 292 m 1
 484 292 l 1
 351 621 l 1
 222 292 l 1
EndSplineSet
EndChar

StartChar: B
Encoding: 66 66 35
Width: 649
GlyphClass: 2
Flags: MW
HStem: -6 62<239.205 456.746> 364 48<219 432.743> 695 49<29 110.035 236.305 428.377>
VStem: 112 107<83.6388 358 406 672> 119 98<77.8706 358 406 651.548> 488 109<484.35 632.875> 517 106<126.855 292.938>
AnchorPoint: "Anchor-0" 325 738 basechar 0
LayerCount: 2
Fore
SplineSet
29 0 m 1xe2
 29 37 l 1
 79 40 119 45 119 83 c 0xea
 119 91 118 462 112 661 c 0
 111 693 90 697 43 700 c 2
 29 701 l 1
 29 738 l 1
 56 736 115 734 167 734 c 0
 321 734 322 744 369 744 c 2
 389 744 l 2
 572 744 597 628 597 573 c 0xf4
 597 484 552 442 486 409 c 2
 456 394 l 1
 567 357 623 296 623 213 c 0
 623 92 506 -6 384 -6 c 2
 363 -6 l 2
 338 -6 309 -4 284 -2 c 2
 252 0 l 2
 225 2 196 4 167 4 c 0
 115 4 56 2 29 0 c 1xe2
217 140 m 0
 217 62 256 56 398 56 c 0
 446 56 517 107 517 212 c 0
 517 313 444 364 347 364 c 0
 309 364 244 362 219 358 c 1xf2
 217 244 217 167 217 140 c 0
219 406 m 1
 262 410 295 412 344 412 c 0
 360 412 374 411 386 410 c 1
 465 433 488 497 488 550 c 0xf4
 488 667 392 695 377 695 c 0
 343 695 262 693 235 683 c 1
 223 672 l 1
 222 622 220 512 219 406 c 1
EndSplineSet
EndChar

StartChar: C
Encoding: 67 67 36
Width: 675
GlyphClass: 2
Flags: W
HStem: -17 55<298.997 498.514> 690 62<284.97 530.296>
VStem: 42 100<216.9 533.668> 546 77<574.331 670.716> 591 37<205 232>
AnchorPoint: "Anchor-0" 407 738 basechar 0
LayerCount: 2
Fore
SplineSet
42 366 m 0xe8
 42 446 53 516 77 572 c 0
 98 621 185 728 313 745 c 0
 342 749 390 752 430 752 c 0
 502 752 581 740 612 723 c 1
 623 712 l 1
 623 702 615 550 614 536 c 1
 579 536 l 1
 571 564 546 643 546 645 c 0xf0
 543 655 539 665 530 671 c 1
 472 686 426 690 381 690 c 0
 186 690 142 605 142 362 c 0
 142 299 147 150 275 72 c 0
 307 53 349 38 401 38 c 0
 458 38 507 58 548 89 c 1
 552 96 567 140 577 178 c 2
 591 232 l 1
 628 232 l 1
 624 191 624 43 624 33 c 1
 559 9 469 -17 376 -17 c 0
 186 -17 42 72 42 366 c 0xe8
EndSplineSet
EndChar

StartChar: D
Encoding: 68 68 37
Width: 776
GlyphClass: 2
Flags: W
HStem: -6 62<247.559 510.141> 0 37<29 105.409> 694 50<236.001 488.893> 701 37<29 105.664>
VStem: 112 112<396.748 672> 119 97<83.9785 396.748> 632 103<249.634 534.078>
AnchorPoint: "Anchor-0" 396 738 basechar 0
LayerCount: 2
Fore
SplineSet
29 0 m 1x4a
 29 37 l 1
 79 40 119 45 119 83 c 0x46
 119 91 118 462 112 661 c 0
 111 693 90 697 43 700 c 2
 29 701 l 1
 29 738 l 1x5a
 56 736 115 734 168 734 c 0
 332 734 334 744 401 744 c 2
 422 744 l 2
 639 744 735 642 735 409 c 0
 735 96 539 -6 398 -6 c 2
 377 -6 l 2xaa
 323 -6 237 4 168 4 c 0
 115 4 56 2 29 0 c 1x4a
216 140 m 0
 216 73 255 56 414 56 c 0
 520 56 552 100 592 172 c 0
 615 213 632 282 632 377 c 0
 632 595 549 694 364 694 c 0
 300 694 256 690 235 683 c 1
 224 672 l 1xaa
 220 566 216 193 216 140 c 0
EndSplineSet
EndChar

StartChar: E
Encoding: 69 69 38
Width: 640
GlyphClass: 2
Flags: MW
HStem: 0 44<231.019 495.444> 0 37<29 107.14> 370 43<227 434.504> 685 52<233.605 475.394> 701 37<37 112.69>
VStem: 119 105<56.1582 370 413 648.255> 514 34<542 623.517> 561 37<205 232>
AnchorPoint: "Anchor-0" 335 738 basechar 0
LayerCount: 2
Fore
SplineSet
29 0 m 1x67
 29 37 l 1
 79 40 119 45 119 83 c 1
 120 115 123 260 123 413 c 0
 123 499 122 588 119 661 c 0
 118 693 97 697 51 700 c 2
 37 701 l 1
 37 738 l 1x6f
 64 736 123 734 175 734 c 0
 220 734 270 735 300 737 c 0x37
 305 737 563 738 563 738 c 1x2f
 575 727 l 1
 572 716 549 556 548 542 c 1
 514 542 l 1
 509 569 493 648 492 650 c 0
 489 660 486 669 476 676 c 1
 463 679 454 680 439 682 c 0
 415 685 357 685 313 685 c 0
 256 685 232 680 231 651 c 0
 229 593 228 499 227 413 c 1
 286 413 452 417 473 418 c 1
 463 344 l 1
 446 344 l 1
 405 374 255 367 226 370 c 1
 224 222 224 92 224 83 c 0
 224 50 271 44 391 44 c 0xb7
 418 44 485 47 496 56 c 0
 521 78 537 140 547 178 c 2
 561 232 l 1
 598 232 l 1
 594 191 589 10 589 0 c 1
 29 0 l 1x67
EndSplineSet
EndChar

StartChar: F
Encoding: 70 70 39
Width: 564
GlyphClass: 2
Flags: MW
HStem: 0 37<29 106.923 235.496 351> 370 43<226 433.704> 685 52<232.683 450.393> 701 37<36 112.69>
VStem: 119 104<49.5299 370 413 648.255> 489 34<542 623.517>
AnchorPoint: "Anchor-0" 322 738 basechar 0
LayerCount: 2
Fore
SplineSet
29 0 m 1xec
 29 37 l 1
 78 40 119 45 119 83 c 0
 119 89 122 253 122 421 c 0
 122 507 121 593 119 661 c 0
 118 693 97 697 51 700 c 2
 36 701 l 1
 36 738 l 1xdc
 64 736 122 734 175 734 c 0
 220 734 269 735 300 737 c 0xec
 305 737 538 738 538 738 c 1xdc
 550 727 l 1
 547 716 524 556 523 542 c 1
 489 542 l 1
 484 569 468 648 467 650 c 0
 464 660 461 669 451 676 c 1
 438 679 428 680 414 682 c 0
 390 685 357 685 313 685 c 0
 256 685 231 680 230 651 c 0
 229 593 227 499 226 413 c 1
 286 413 452 417 473 418 c 1
 463 344 l 1
 445 344 l 1
 405 374 254 367 226 370 c 1
 224 222 223 92 223 83 c 0
 223 46 261 41 313 37 c 2
 351 34 l 1
 351 0 l 1
 29 0 l 1xec
EndSplineSet
EndChar

StartChar: G
Encoding: 71 71 40
Width: 757
GlyphClass: 2
Flags: W
HStem: -17 65<300.026 533.825> 270 36<468 565.232 673.681 744> 690 62<285.168 539.791>
VStem: 42 100<213.653 533.668> 575 94<74.7895 259.414> 620 35<536 591.566>
AnchorPoint: "Anchor-0" 413 738 basechar 0
LayerCount: 2
Fore
SplineSet
42 366 m 0xf8
 42 446 53 516 77 572 c 0
 98 621 185 728 313 745 c 0
 342 749 390 752 430 752 c 0
 502 752 622 740 652 723 c 1
 664 712 l 1
 664 702 656 550 655 536 c 1
 620 536 l 1xf4
 613 560 588 641 584 651 c 1
 562 665 480 690 382 690 c 0
 186 690 142 605 142 362 c 0
 142 197 199 48 428 48 c 0
 500 48 543 61 575 91 c 1
 575 230 l 2
 575 263 534 267 493 270 c 2
 468 272 l 1
 467 306 l 1
 494 304 570 302 623 302 c 0
 676 302 717 304 744 306 c 1
 744 269 l 1
 730 268 l 2
 683 265 669 256 669 237 c 2
 669 51 l 1
 658 40 l 1
 593 17 469 -17 376 -17 c 0
 186 -17 42 72 42 366 c 0xf8
EndSplineSet
EndChar

StartChar: H
Encoding: 72 72 41
Width: 849
GlyphClass: 2
Flags: W
HStem: 0 37<29 107.14 228.496 306 542 620.14 741.496 819> 370 43<219 630> 701 37<29 105.664 229.336 306 542 618.664 742.336 819>
VStem: 112 106<83.6388 370 413 690.86> 119 97<49.5299 363.076> 630 106<83.7246 370 413 690.86> 632 97<49.5299 363.028>
AnchorPoint: "Anchor-0" 425 738 basechar 0
LayerCount: 2
Fore
SplineSet
29 0 m 1xe8
 29 37 l 1
 79 40 119 45 119 83 c 0xe8
 119 91 118 462 112 661 c 0
 111 693 90 697 43 700 c 2
 29 701 l 1
 29 738 l 1
 306 738 l 1
 306 701 l 1
 292 700 l 2
 245 697 224 693 223 661 c 0
 222 607 220 511 219 413 c 1
 630 413 l 1
 629 501 627 591 625 661 c 0
 624 693 603 697 556 700 c 2
 542 701 l 1
 542 738 l 1
 819 738 l 1
 819 701 l 1
 805 700 l 2
 758 697 737 693 736 661 c 0xf4
 731 518 729 92 729 83 c 0
 729 46 767 41 819 37 c 1
 819 0 l 1
 542 0 l 1
 542 37 l 1
 592 40 632 45 632 83 c 0xe2
 632 88 632 221 630 370 c 1
 218 370 l 1xf4
 217 222 216 92 216 83 c 0
 216 46 254 41 306 37 c 1
 306 0 l 1
 29 0 l 1xe8
EndSplineSet
EndChar

StartChar: I
Encoding: 73 73 42
Width: 335
GlyphClass: 2
Flags: W
HStem: 0 37<29 107.14 228.496 306> 701 37<29 105.664 229.336 306>
VStem: 112 111<83.7246 693.227> 119 97<49.5299 651.548>
AnchorPoint: "Anchor-0" 167 738 basechar 0
LayerCount: 2
Fore
SplineSet
29 0 m 1xd0
 29 37 l 1
 79 40 119 45 119 83 c 0xd0
 119 91 118 462 112 661 c 0
 111 693 90 697 43 700 c 2
 29 701 l 1
 29 738 l 1
 306 738 l 1
 306 701 l 1
 292 700 l 2
 245 697 224 693 223 661 c 0xe0
 218 518 216 92 216 83 c 0
 216 46 254 41 306 37 c 1
 306 0 l 1
 29 0 l 1xd0
EndSplineSet
EndChar

StartChar: J
Encoding: 74 74 43
Width: 312
GlyphClass: 2
Flags: W
HStem: 701 37<15 90.4361 214.869 292>
VStem: 97 112<383.02 693.227> 103 90<-58.6134 252.85>
AnchorPoint: "Anchor-0" 153 738 basechar 0
LayerCount: 2
Fore
SplineSet
0 -162 m 1xa0
 27 -141 l 1
 93 -82 103 -33 103 92 c 0xa0
 103 547 99 640 97 661 c 0
 95 693 76 697 29 700 c 2
 15 701 l 1
 15 738 l 1
 292 738 l 1
 292 701 l 1
 277 700 l 2
 231 697 209 693 209 661 c 0xc0
 207 480 199 39 193 8 c 0
 179 -79 120 -137 64 -170 c 1
 20 -194 l 1
 0 -162 l 1xa0
EndSplineSet
EndChar

StartChar: K
Encoding: 75 75 44
Width: 670
GlyphClass: 2
Flags: W
HStem: 0 37<38 116.14 237.496 315> 369 42<224 263.358> 701 37<32 108.69 419 477.993 577.714 651>
VStem: 115 109<421.428 693.227> 128 97<49.5299 336.36>
AnchorPoint: "Anchor-0" 327 738 basechar 0
LayerCount: 2
Fore
SplineSet
32 701 m 1xf0
 32 738 l 1
 218 738 l 1
 230 727 l 1
 227 664 224 437 224 411 c 1
 292 413 478 674 478 684 c 0
 478 694 469 698 419 701 c 1
 419 738 l 1
 651 738 l 1
 651 701 l 1
 593 697 589 693 556 665 c 0
 521 634 471 581 396 496 c 1
 332 422 l 1
 332 422 520 156 608 60 c 1
 670 36 l 1
 670 0 l 1
 615 0 573 0 518 -4 c 1
 256 362 l 2
 253 366 247 369 241 369 c 2
 224 369 l 1xf0
 224 255 225 112 225 83 c 0
 225 46 263 41 315 37 c 1
 315 0 l 1
 38 0 l 1
 38 37 l 1
 88 40 128 45 128 83 c 0xe8
 128 88 120 529 115 661 c 0
 114 693 93 697 47 700 c 2
 32 701 l 1xf0
EndSplineSet
EndChar

StartChar: L
Encoding: 76 76 45
Width: 558
GlyphClass: 2
Flags: W
HStem: 0 44<222.615 463.884> 0 37<29 106.737> 701 37<29 105.224 232.093 319>
VStem: 112 111<84.3699 690.324> 119 97<55.5279 651.832> 521 37<205 232>
AnchorPoint: "Anchor-0" 173 738 basechar 0
LayerCount: 2
Fore
SplineSet
29 0 m 1x6c
 29 37 l 1
 82 41 119 46 119 83 c 0x6c
 119 107 118 468 112 661 c 1
 110 693 90 697 43 700 c 2
 29 701 l 1
 29 738 l 1
 319 738 l 1
 319 701 l 1
 305 700 l 2
 258 697 224 693 223 661 c 0x74
 218 518 216 92 216 83 c 0
 216 60 242 44 314 44 c 2
 335 44 l 2xac
 350 44 443 45 456 56 c 0
 481 78 497 140 507 178 c 2
 521 232 l 1
 558 232 l 1
 554 191 549 10 549 0 c 1
 29 0 l 1x6c
EndSplineSet
EndChar

StartChar: M
Encoding: 77 77 46
Width: 953
GlyphClass: 2
Flags: W
HStem: 0 37<3 57.1204 168.137 239 643 721.14 849.417 920> 701 37<2 101.281 827.578 927>
VStem: 86 64<62.3166 313.383> 110 55<453.451 601> 711 108<394.998 597> 733 106<48.8255 349.258>
DStem2: 239 711 165 601 0.391886 -0.920014<72.2019 599.31>
AnchorPoint: "Anchor-0" 464 738 basechar 0
LayerCount: 2
Fore
SplineSet
2 701 m 1xd0
 2 738 l 1
 230 738 l 1
 239 711 l 1
 463 155 l 1
 546 335 623 525 690 711 c 1
 699 738 l 1
 927 738 l 1
 927 701 l 1
 868 698 819 695 819 665 c 0xd8
 819 659 826 461 838 116 c 2
 839 88 l 1
 843 44 862 41 920 37 c 1
 920 0 l 1
 643 0 l 1
 643 37 l 1
 693 40 733 45 733 83 c 0xc4
 731 236 725 366 711 597 c 1
 604 362 518 151 460 0 c 1
 421 0 l 1
 165 601 l 1xd8
 156 446 150 290 150 83 c 0
 150 50 196 43 239 39 c 1
 239 0 l 1
 3 0 l 1
 3 36 l 1
 66 43 81 71 86 132 c 1xe0
 108 479 110 666 110 666 c 1
 110 695 60 698 2 701 c 1xd0
EndSplineSet
EndChar

StartChar: N
Encoding: 78 78 47
Width: 777
GlyphClass: 2
Flags: W
HStem: 0 39<19 91.5874 181.153 255> 700 38<15 101.906 535 610.754 701.818 777>
VStem: 102 67<52.6912 439.72> 109 55<81.744 597> 629 61<244.54 674.75> 633 50<159 462.744>
AnchorPoint: "Anchor-0" 398 738 basechar 0
LayerCount: 2
Fore
SplineSet
15 701 m 1xd0
 15 738 l 1
 204 738 l 1
 212 714 389 477 633 159 c 1xd4
 632 173 629 378 629 467 c 0
 629 517 626 601 625 634 c 0
 624 677 621 692 535 700 c 1
 535 738 l 1
 777 738 l 1
 777 702 l 1
 743 699 709 694 696 675 c 0
 693 670 690 644 690 644 c 1xc8
 686 505 683 173 683 164 c 0
 683 122 685 0 685 0 c 1
 626 0 l 1
 576 77 573 75 164 597 c 1
 164 290 l 1xd4
 164 290 169 99 169 83 c 0
 169 50 211 43 255 39 c 1
 255 0 l 1
 19 0 l 1
 19 36 l 1
 62 40 98 48 102 80 c 0xe0
 107 116 109 229 109 450 c 2
 109 482 l 2
 109 551 108 664 108 667 c 0
 106 679 100 692 65 696 c 2
 15 701 l 1xd0
EndSplineSet
EndChar

StartChar: O
Encoding: 79 79 48
Width: 745
GlyphClass: 2
Flags: W
HStem: -14 66<289.658 471.263> 689 62<278.822 469.719>
VStem: 42 102<229.055 517.307> 601 103<233.93 520.273>
AnchorPoint: "Anchor-0" 387 738 basechar 0
LayerCount: 2
Fore
SplineSet
42 358 m 0
 42 472 69 554 106 610 c 0
 181 722 338 751 395 751 c 0
 609 751 704 621 704 411 c 0
 704 340 696 214 633 122 c 0
 561 16 417 -14 359 -14 c 0
 136 -14 42 149 42 358 c 0
144 379 m 0
 144 345 144 147 285 75 c 0
 327 54 357 52 405 52 c 0
 522 52 601 128 601 351 c 0
 601 596 507 673 413 687 c 0
 404 689 376 689 359 689 c 0
 237 689 144 610 144 379 c 0
EndSplineSet
EndChar

StartChar: P
Encoding: 80 80 49
Width: 637
GlyphClass: 2
Flags: W
HStem: 0 37<29 106.479 240.728 371> 322 50<238.378 433.868> 695 49<36 115.111 243.254 432.441>
VStem: 119 112<406.06 672> 119 104<53.3783 338 390.758 669.232> 490 112<459.571 635.538>
AnchorPoint: "Anchor-0" 326 738 basechar 0
LayerCount: 2
Fore
SplineSet
29 0 m 1xec
 29 37 l 1
 78 40 118 45 119 83 c 0xec
 120 117 122 218 122 421 c 0
 122 507 121 593 119 661 c 0xf4
 118 693 97 697 50 700 c 2
 36 701 l 1
 36 738 l 1
 64 736 122 734 175 734 c 0
 328 734 329 744 376 744 c 2
 396 744 l 2
 561 744 602 639 602 541 c 0
 602 462 523 322 332 322 c 0
 295 322 250 327 225 338 c 1
 224 204 223 91 223 83 c 0
 223 46 280 41 333 37 c 2
 371 34 l 1
 371 0 l 1
 29 0 l 1xec
226 402 m 1
 242 388 282 372 341 372 c 0
 486 372 490 472 490 524 c 0
 490 578 489 649 413 686 c 0
 402 691 390 695 384 695 c 0
 342 695 268 692 242 683 c 1
 231 672 l 1xf4
 229 614 227 488 226 402 c 1
EndSplineSet
EndChar

StartChar: Q
Encoding: 81 81 50
Width: 745
GlyphClass: 2
Flags: W
HStem: -14 66<289.658 449.627> 689 62<278.822 469.719>
VStem: 42 102<229.055 517.307> 601 103<233.858 520.273>
AnchorPoint: "Anchor-0" 387 738 basechar 0
LayerCount: 2
Fore
SplineSet
42 358 m 0
 42 472 69 554 106 610 c 0
 181 722 338 751 395 751 c 0
 609 751 704 621 704 411 c 0
 704 191 634 80 511 23 c 1
 578 -50 622 -91 654 -114 c 1
 642 -130 617 -172 609 -191 c 1
 595 -195 l 1
 439 -2 l 1
 407 -11 378 -14 359 -14 c 0
 136 -14 42 149 42 358 c 0
144 379 m 0
 144 345 144 147 285 75 c 0
 327 54 357 52 405 52 c 0
 522 52 601 128 601 351 c 0
 601 596 507 673 413 687 c 0
 404 689 376 689 359 689 c 0
 237 689 144 610 144 379 c 0
EndSplineSet
EndChar

StartChar: R
Encoding: 82 82 51
Width: 669
GlyphClass: 2
Flags: W
HStem: 0 37<32 110.14 231.496 309> 357 50<223.861 349> 697 47<32 112.219 238.111 403.039>
VStem: 115 107<96.9403 370 415.928 673> 122 97<49.5299 370 416.703 651.548> 454 104<474.669 640.821>
AnchorPoint: "Anchor-0" 315 738 basechar 0
LayerCount: 2
Fore
SplineSet
32 0 m 1xec
 32 37 l 1
 82 40 122 45 122 83 c 0xec
 122 91 121 462 115 661 c 0
 114 693 93 697 46 700 c 2
 32 701 l 1
 32 738 l 1
 60 736 115 734 171 734 c 0
 311 734 331 744 372 744 c 2
 392 744 l 2
 477 744 558 678 558 566 c 0
 558 472 513 433 436 382 c 1
 436 382 541 176 614 60 c 1
 669 36 l 1
 669 0 l 1
 614 0 579 0 524 -4 c 1
 349 357 l 1
 321 357 l 2
 288 357 248 361 222 370 c 1xf4
 220 229 219 88 219 83 c 0
 219 46 257 41 309 37 c 1
 309 0 l 1
 32 0 l 1xec
223 424 m 1
 241 413 282 407 328 407 c 0
 429 407 454 495 454 552 c 0
 454 669 372 697 359 697 c 0
 329 697 260 694 237 684 c 1
 227 673 l 1
 225 627 224 523 223 424 c 1
EndSplineSet
EndChar

StartChar: S
Encoding: 83 83 52
Width: 519
GlyphClass: 2
Flags: W
HStem: -15 71<164.945 363.344> 528 21G<408 447.5> 689 64<177.318 356.054>
VStem: 57 80<514.957 646.178> 65 37<205 232> 379 77<566.331 662.67> 395 94<103.45 237.362>
DStem2: 217 469 222 340 0.887312 -0.461169<-85.5329 247.654>
AnchorPoint: "Anchor-0" 285 738 basechar 0
LayerCount: 2
Fore
SplineSet
57 543 m 0xf2
 57 620 73 674 169 727 c 0
 191 739 220 753 296 753 c 0
 355 753 412 732 444 715 c 1
 456 704 l 1
 456 694 448 542 447 528 c 1
 412 528 l 1
 404 556 379 635 379 637 c 0
 375 647 372 656 363 663 c 0
 352 673 316 689 266 689 c 0
 189 689 137 668 137 584 c 0xf4
 137 515 183 487 217 469 c 2
 369 390 l 2
 406 371 489 323 489 204 c 0
 489 132 474 102 424 44 c 0
 403 21 360 -15 253 -15 c 0
 175 -15 99 12 58 30 c 1
 61 71 65 190 65 232 c 1
 102 232 l 1xea
 116 178 l 2
 135 103 140 97 164 78 c 1
 194 65 233 56 277 56 c 0
 351 56 395 78 395 165 c 0
 395 246 333 284 303 300 c 1
 222 340 l 1
 145 380 131 388 115 405 c 2
 107 414 l 2
 72 452 57 498 57 543 c 0xf2
EndSplineSet
EndChar

StartChar: T
Encoding: 84 84 53
Width: 608
GlyphClass: 2
Flags: W
HStem: 0 35<140 226.064 372.988 460> 671 67<83.2812 204.989 403.011 524.719> 681 57<83.2812 247.296 360.704 524.719>
VStem: 5 35<530 586.138> 247 105<52.168 349.444> 250 110<402 679.28> 568 35<530 586.138>
AnchorPoint: "Anchor-0" 301 738 basechar 0
LayerCount: 2
Fore
SplineSet
0 727 m 1xd6
 11 738 l 1
 597 738 l 1xb6
 608 727 l 1
 607 710 603 580 603 530 c 1
 568 530 l 1
 560 559 535 638 534 640 c 0
 532 646 529 654 525 662 c 1
 519 668 513 670 507 671 c 0xd6
 481 676 423 681 402 681 c 0
 391 681 375 679 360 676 c 1xb6
 355 558 352 261 352 83 c 0
 352 45 410 39 460 35 c 1
 460 0 l 1
 140 0 l 1
 140 35 l 1
 189 39 247 45 247 83 c 2xba
 247 83 250 277 250 463 c 0
 250 540 250 616 248 676 c 1
 233 679 217 681 206 681 c 0xb6
 185 681 127 676 101 671 c 0
 95 670 89 668 83 662 c 1
 79 654 76 646 74 640 c 0
 73 638 48 559 40 530 c 1
 5 530 l 1
 5 580 1 710 0 727 c 1xd6
EndSplineSet
EndChar

StartChar: U
Encoding: 85 85 54
Width: 757
GlyphClass: 2
Flags: W
HStem: -14 60<315.701 527.106> 701 37<34 104.139 232.263 310 526 597.525 697.681 762>
VStem: 118 103<128.176 689.13> 616 65<413.268 684.61> 618 53<141.856 455.555>
AnchorPoint: "Anchor-0" 415 738 basechar 0
LayerCount: 2
Fore
SplineSet
34 701 m 1xe8
 34 738 l 1
 310 738 l 1
 310 701 l 1
 257 697 220 692 220 655 c 0
 220 606 221 493 221 390 c 2
 221 310 l 1
 222 255 222 212 222 197 c 0
 222 142 266 46 434 46 c 0
 597 46 618 131 618 356 c 0xe8
 618 445 616 535 616 655 c 0
 616 688 569 695 526 699 c 1
 526 738 l 1
 762 738 l 1
 762 702 l 1
 718 697 684 685 682 658 c 2
 681 640 l 2xf0
 678 599 671 278 671 238 c 0
 671 14 516 -14 362 -14 c 0
 154 -14 118 150 118 214 c 2
 118 214 116 639 115 650 c 0
 110 694 92 697 34 701 c 1xe8
EndSplineSet
EndChar

StartChar: V
Encoding: 86 86 55
Width: 750
GlyphClass: 2
Flags: W
HStem: 0 21G<328.881 409.304> 701 37<0 50.6593 208.488 276 514 584.599 699.323 750>
AnchorPoint: "Anchor-0" 397 738 basechar 0
LayerCount: 2
Fore
SplineSet
0 701 m 1
 0 738 l 1
 276 738 l 1
 276 701 l 1
 223 697 202 687 202 666 c 2
 202 662 l 2
 202 640 354 198 391 121 c 1
 458 270 597 629 597 653 c 0
 597 682 586 692 514 699 c 1
 514 738 l 1
 750 738 l 1
 750 702 l 1
 695 696 684 679 636 566 c 1
 401 0 l 1
 337 0 l 1
 78 638 l 2
 63 675 49 698 0 701 c 1
EndSplineSet
EndChar

StartChar: W
Encoding: 87 87 56
Width: 1000
GlyphClass: 2
Flags: W
HStem: 0 21G<233.5 320 659 749.5> 701 37<0 39.875 181.128 260 382 452.534 595.861 659 786 856.8 956.743 1000>
VStem: 236 78<0 75.5647> 458 133<587.985 693.367>
AnchorPoint: "Anchor-0" 520 738 basechar 0
LayerCount: 2
Fore
SplineSet
0 701 m 1
 0 738 l 1
 260 738 l 1
 260 701 l 1
 196 696 175 693 175 662 c 0
 175 641 278 228 302 167 c 1
 342 268 458 644 458 665 c 0
 458 694 432 698 382 701 c 1
 382 738 l 1
 659 738 l 1
 659 701 l 1
 628 699 591 696 591 668 c 0
 591 654 678 300 730 167 c 1
 790 348 869 634 869 657 c 0
 869 687 843 694 786 699 c 1
 786 738 l 1
 1000 738 l 1
 1000 702 l 1
 968 699 955 688 944 660 c 1
 944 660 753 34 746 0 c 1
 672 0 l 1
 646 124 526 484 495 569 c 1
 465 491 326 68 314 0 c 1
 236 0 l 1
 231 44 110 461 71 596 c 1
 58 638 l 1
 49 676 38 698 0 701 c 1
EndSplineSet
EndChar

StartChar: X
Encoding: 88 88 57
Width: 646
GlyphClass: 2
Flags: W
HStem: 0 37<0 39.2472 150.652 224 389 458.637 596.479 646> 701 37<17 67.9062 227.905 294 420 492.604 601.003 644>
DStem2: 283 362 309 319 0.613185 0.789939<-228.535 -18.0246 107.698 320.251> 353 444 283 362 0.543612 -0.839337<-262.301 0 80.9982 377.332>
AnchorPoint: "Anchor-0" 358 738 basechar 0
LayerCount: 2
Fore
SplineSet
0 0 m 1
 0 36 l 1
 20 38 51 62 72 82 c 0
 97 105 239 300 283 362 c 1
 78 671 l 2
 66 688 49 699 17 701 c 1
 17 738 l 1
 294 738 l 1
 294 701 l 1
 243 697 226 691 226 675 c 0
 226 660 253 607 353 444 c 1
 428 546 496 651 496 670 c 0
 496 689 486 693 420 699 c 1
 420 738 l 1
 644 738 l 1
 644 702 l 1
 605 697 571 658 549 630 c 2
 379 401 l 1
 511 182 l 2
 593 45 599 40 646 37 c 1
 646 0 l 1
 389 0 l 1
 389 37 l 1
 416 39 464 45 464 66 c 0
 464 73 459 81 453 92 c 2
 309 319 l 1
 239 225 142 85 142 69 c 0
 142 50 177 44 224 39 c 1
 224 0 l 1
 0 0 l 1
EndSplineSet
EndChar

StartChar: Y
Encoding: 89 89 58
Width: 649
GlyphClass: 2
Flags: W
HStem: 0 35<162 246.961 387.484 472> 701 37<0 38.5731 198.332 276 441 508.396 599.133 649>
VStem: 267 100<67.3543 367>
AnchorPoint: "Anchor-0" 358 738 basechar 0
LayerCount: 2
Fore
SplineSet
0 701 m 1
 0 738 l 1
 276 738 l 1
 276 701 l 1
 210 696 193 688 193 668 c 0
 193 646 293 488 344 408 c 1
 381 461 511 652 511 673 c 0
 511 693 486 696 441 699 c 1
 441 738 l 1
 649 738 l 1
 649 702 l 1
 615 698 602 687 594 677 c 2
 370 367 l 1
 368 323 367 258 367 149 c 0
 367 117 368 74 372 67 c 0
 385 43 432 38 472 35 c 1
 472 0 l 1
 162 0 l 1
 162 35 l 1
 212 39 267 45 267 83 c 0
 267 248 263 358 263 358 c 1
 246 389 145 537 64 654 c 1
 64 654 36 698 0 701 c 1
EndSplineSet
EndChar

StartChar: Z
Encoding: 90 90 59
Width: 661
GlyphClass: 2
Flags: W
HStem: 0 50<170.086 499.449> 528 21G<73.5 112> 687 51<157.982 467>
VStem: 74 34<528 584.138> 572 40<189.1 215>
DStem2: 467 682 169 60 0.553554 0.832813<-682.969 0>
LayerCount: 2
Fore
SplineSet
21 11 m 1
 467 682 l 1
 437 685 406 687 362 687 c 0
 329 687 306 686 186 683 c 0
 163 682 145 648 142 638 c 0
 141 636 116 557 108 528 c 1
 74 528 l 1
 73 543 70 717 70 727 c 1
 82 738 l 1
 613 738 l 1
 625 727 l 1
 464 500 200 124 169 60 c 1
 192 56 226 50 283 50 c 0
 465 50 501 54 511 63 c 0
 536 84 552 140 562 178 c 2
 572 215 l 1
 612 215 l 1
 608 155 604 9 604 0 c 1
 33 0 l 1
 21 11 l 1
EndSplineSet
EndChar

StartChar: bracketleft
Encoding: 91 91 60
Width: 295
GlyphClass: 2
Flags: W
HStem: -205 34<199.542 295> 764 33<201.523 295>
VStem: 100 90<-161.437 754.03>
LayerCount: 2
Fore
SplineSet
100 -193 m 1
 100 786 l 1
 111 797 l 1
 115 796 134 795 179 795 c 0
 207 795 245 795 295 797 c 1
 295 764 l 1
 194 762 191 751 190 705 c 1
 190 -113 l 1
 191 -159 194 -169 295 -171 c 1
 295 -205 l 1
 245 -203 207 -202 179 -202 c 0
 134 -202 115 -204 111 -204 c 1
 100 -193 l 1
EndSplineSet
EndChar

StartChar: backslash
Encoding: 92 92 61
Width: 480
GlyphClass: 2
Flags: W
HStem: 777 20G<-20 50.7972>
DStem2: 41 797 -20 797 0.439915 -0.89804<0 1015.67>
LayerCount: 2
Fore
SplineSet
-20 797 m 1
 41 797 l 1
 500 -140 l 1
 437 -140 l 1
 -20 797 l 1
EndSplineSet
EndChar

StartChar: bracketright
Encoding: 93 93 62
Width: 295
GlyphClass: 2
Flags: W
HStem: -205 34<0 95.4584> 764 33<0 93.4772>
VStem: 105 90<-161.437 754.03>
LayerCount: 2
Fore
SplineSet
0 -171 m 1
 101 -169 104 -159 105 -113 c 1
 105 705 l 1
 104 751 101 762 0 764 c 1
 0 797 l 1
 50 795 88 795 116 795 c 0
 161 795 180 796 184 797 c 1
 195 786 l 1
 195 -193 l 1
 184 -204 l 1
 180 -204 161 -202 116 -202 c 0
 88 -202 50 -203 0 -205 c 1
 0 -171 l 1
EndSplineSet
EndChar

StartChar: asciicircum
Encoding: 94 94 63
Width: 480
GlyphClass: 2
Flags: W
HStem: 727 20G<202 280.903>
DStem2: -3 273 69 273 0.406322 0.91373<29.2552 449.609> 272 747 240 657 0.406675 -0.913573<69.208 489.561>
LayerCount: 2
Fore
SplineSet
-3 273 m 1
 202 734 l 1
 272 747 l 1
 483 273 l 1
 472 261 l 1
 411 273 l 1
 240 657 l 1
 69 273 l 1
 8 261 l 1
 -3 273 l 1
EndSplineSet
EndChar

StartChar: underscore
Encoding: 95 95 64
Width: 500
GlyphClass: 2
Flags: W
HStem: -98 55<0 500>
LayerCount: 2
Fore
SplineSet
0 -43 m 1
 500 -42 l 1
 500 -98 l 1
 0 -98 l 1
 0 -43 l 1
EndSplineSet
EndChar

StartChar: grave
Encoding: 96 96 65
Width: 500
GlyphClass: 4
Flags: W
HStem: 559 201
VStem: 144 212
AnchorPoint: "Anchor-0" 299 510 mark 0
LayerCount: 2
Fore
SplineSet
144 715 m 1
 146 739 174 760 202 760 c 1
 234 720 302 636 356 580 c 1
 338 559 l 1
 282 596 182 680 144 715 c 1
EndSplineSet
EndChar

StartChar: a
Encoding: 97 97 66
Width: 478
GlyphClass: 2
Flags: W
HStem: -10 67<100 243.016> 462 64<149.982 292.178>
VStem: 40 90<72.9644 209.148> 66 41<342 402.881> 323 88<107.306 277 312.929 430.828> 328 128<14.6172 65.9585>
AnchorPoint: "Anchor-0" 246 510 basechar 0
LayerCount: 2
Fore
SplineSet
411 128 m 0xd8
 411 85 456 44 456 26 c 0
 456 22 454 20 447 18 c 2
 447 18 377 -5 370 -5 c 0
 348 -5 334 55 328 67 c 1
 242 11 231 -10 138 -10 c 0
 62 -10 40 58 40 121 c 0xe4
 40 290 170 282 322 316 c 1
 322 340 323 364 323 376 c 0
 323 444 261 462 214 462 c 0
 143 462 133 432 107 338 c 1
 66 342 l 1
 70 376 50 526 259 526 c 0
 413 526 415 441 415 392 c 0
 415 260 411 179 411 128 c 0xd8
130 131 m 0
 130 78 159 57 197 57 c 0
 234 57 280 77 316 107 c 0
 323 113 323 153 323 192 c 0xe8
 323 218 323 247 322 277 c 1
 154 221 130 225 130 131 c 0
EndSplineSet
Substitution2: "Single Substitution in Latin lookup 0 subtable" A
EndChar

StartChar: b
Encoding: 98 98 67
Width: 535
GlyphClass: 2
Flags: W
HStem: -15 69<214.415 362.662> 458 69<257.794 356.585> 740 33<12 73.2344> 777 20G<154.5 164>
VStem: 86 86<86.884 430.188 462 735.254> 420 89<136.195 390.944>
AnchorPoint: "Anchor-0" 124 759 basechar 0
LayerCount: 2
Fore
SplineSet
10 773 m 1
 108 782 149 797 160 797 c 0
 168 797 177 793 177 782 c 2
 177 739 l 1
 173 462 l 1
 281 521 307 527 327 527 c 0
 483 527 509 427 509 294 c 0
 509 207 499 144 466 94 c 0
 460 86 404 24 350 0 c 0
 323 -12 288 -15 253 -15 c 0
 208 -15 114 8 86 47 c 1
 84 379 87 560 82 650 c 0
 77 740 85 740 12 740 c 1
 10 773 l 1
171 213 m 0
 171 126 173 106 181 98 c 1
 196 79 256 54 308 54 c 0
 354 54 384 60 403 122 c 0
 416 164 420 279 420 286 c 0
 420 431 337 458 283 458 c 0
 261 458 244 457 172 419 c 1
 172 353 l 1
 171 293 171 247 171 213 c 0
EndSplineSet
Substitution2: "Single Substitution in Latin lookup 0 subtable" B
EndChar

StartChar: c
Encoding: 99 99 68
Width: 441
GlyphClass: 2
Flags: W
HStem: -14 77<177.497 300.941> 456 69<166.774 332.001>
VStem: 30 89<130.098 403.152> 363 30<354 413.985>
AnchorPoint: "Anchor-0" 243 510 basechar 0
LayerCount: 2
Fore
SplineSet
30 240 m 0
 30 293 33 334 43 383 c 0
 48 406 73 432 78 436 c 0
 175 525 215 525 260 525 c 0
 320 525 386 508 396 504 c 1
 394 484 393 364 393 354 c 1
 363 354 l 1
 363 354 353 398 347 418 c 0
 340 443 276 456 219 456 c 0
 139 456 119 414 119 272 c 0
 119 154 139 63 255 63 c 0
 322 63 392 134 392 134 c 1
 413 114 l 1
 365 61 313 -14 222 -14 c 0
 191 -14 155 -6 114 16 c 1
 81 46 64 74 44 120 c 1
 36 154 30 195 30 240 c 0
EndSplineSet
Substitution2: "Single Substitution in Latin lookup 0 subtable" C
EndChar

StartChar: d
Encoding: 100 100 69
Width: 527
GlyphClass: 2
Flags: W
HStem: -15 86<189.112 290.844> 470 58<159.95 342.79> 741 33<285 346.812> 778 20G<428.5 437.5>
VStem: 30 88<158.667 406.166> 355 96<135.7 451.842 514 736.984> 358 86<98.8664 451.188 514 736.061>
AnchorPoint: "Anchor-0" 371 759 basechar 0
LayerCount: 2
Fore
SplineSet
30 242 m 0xfa
 30 432 78 458 117 482 c 2
 151 502 l 2
 171 514 199 528 251 528 c 0
 278 528 314 524 357 514 c 1
 357 582 355 630 355 664 c 0
 355 741 352 739 285 741 c 1
 283 774 l 1
 382 783 423 798 434 798 c 0
 441 798 451 794 451 782 c 0xfc
 451 410 444 272 444 129 c 0
 444 85 495 37 495 26 c 0
 495 19 460 11 450 7 c 0
 425 -4 411 -10 403 -10 c 0
 385 -10 371 56 359 68 c 1
 314 18 273 -15 226 -15 c 0
 176 -15 30 46 30 242 c 0xfa
237 470 m 0
 168 470 118 454 118 280 c 0
 118 133 184 71 255 71 c 0
 291 71 328 87 358 116 c 1xfa
 358 409 355 377 355 442 c 1
 328 458 280 470 237 470 c 0
EndSplineSet
Substitution2: "Single Substitution in Latin lookup 0 subtable" D
EndChar

StartChar: e
Encoding: 101 101 70
Width: 467
GlyphClass: 2
Flags: W
HStem: -15 77<176.81 316.872> 261 45<128 341.854> 458 65<165.372 302.743>
VStem: 30 96<116.45 261 306 397.242> 343 93<314.49 413.086>
AnchorPoint: "Anchor-0" 248 510 basechar 0
LayerCount: 2
Fore
SplineSet
30 246 m 0
 30 317 44 380 52 399 c 0
 71 442 166 523 243 523 c 0
 447 523 435 350 436 281 c 1
 410 265 373 261 331 261 c 2
 126 261 l 1
 126 162 127 62 256 62 c 0
 317 62 366 85 415 133 c 1
 437 110 l 1
 379 51 323 -15 236 -15 c 0
 68 -15 30 127 30 246 c 0
128 306 m 1
 185 306 l 2
 267 306 319 307 343 324 c 1
 343 370 329 458 239 458 c 0
 143 458 128 411 128 306 c 1
EndSplineSet
Substitution2: "Single Substitution in Latin lookup 0 subtable" E
EndChar

StartChar: f
Encoding: 102 102 71
Width: 365
GlyphClass: 2
Flags: MW
HStem: 0 31<46 106.247 241.101 326> 448 56<219 350> 761 37<288.089 347.446>
VStem: 119 100<103.741 448 504 631.507> 126 89<48.0934 441.506> 381 43<648 684.437>
AnchorPoint: "Anchor-0" 300 758 basechar 0
LayerCount: 2
Fore
SplineSet
30 448 m 1xec
 30 482 l 1
 119 497 l 1
 119 643 188 798 344 798 c 0
 413 798 425 758 425 685 c 0
 425 673 424 661 424 648 c 1
 381 647 l 1
 366 729 342 761 318 761 c 0
 270 761 219 636 219 519 c 2
 219 504 l 1
 353 504 l 1
 350 448 l 1
 219 448 l 1xf4
 217 343 215 167 215 97 c 0
 215 40 226 49 326 31 c 1
 326 0 l 1
 46 0 l 1
 46 34 l 1
 119 45 126 43 126 102 c 0
 126 137 123 310 120 448 c 1
 30 448 l 1xec
EndSplineSet
Substitution2: "Single Substitution in Latin lookup 0 subtable" F
EndChar

StartChar: g
Encoding: 103 103 72
Width: 475
GlyphClass: 2
Flags: W
HStem: -204 39<162.934 319.583> 30 49<153.784 350.742> 449 35<396 467.586> 463 61<172.777 291.034>
VStem: 10 86<-109.423 -20.5976> 43 92<254.478 416.32> 59 91<83.1002 145.56> 321 95<260.033 434.074> 379 96<-105.611 4.07404>
AnchorPoint: "Anchor-0" 251 510 basechar 0
LayerCount: 2
Fore
SplineSet
10 -83 m 0xe880
 10 -51 18 0 138 51 c 1
 88 58 59 76 59 105 c 0xe2
 59 120 62 151 148 177 c 1
 81 207 56 234 44 299 c 0
 43 303 43 310 43 318 c 0
 43 343 47 381 60 410 c 0
 73 437 159 524 264 524 c 0xd4
 286 524 328 521 372 484 c 1
 398 485 439 490 469 497 c 1
 475 491 l 1
 475 449 l 1xe480
 396 449 l 1
 407 433 416 378 416 347 c 0
 416 291 400 255 358 216 c 1
 322 195 284 181 232 170 c 1
 177 156 150 138 150 113 c 0xe3
 150 94 168 79 193 79 c 2
 312 79 l 2
 317 79 383 77 403 69 c 0
 431 58 475 15 475 -37 c 0
 475 -104 410 -204 215 -204 c 0
 138 -204 10 -180 10 -83 c 0xe880
96 -54 m 0xc880
 96 -118 172 -165 232 -165 c 0
 335 -165 379 -113 379 -46 c 0
 379 -7 352 30 262 30 c 0
 164 30 96 10 96 -54 c 0xc880
135 324 m 0xd5
 135 266 168 220 236 220 c 0
 301 220 321 248 321 344 c 0
 321 433 299 453 223 462 c 0
 218 463 213 463 209 463 c 0
 164 463 135 434 135 324 c 0xd5
EndSplineSet
Substitution2: "Single Substitution in Latin lookup 0 subtable" G
EndChar

StartChar: h
Encoding: 104 104 73
Width: 565
GlyphClass: 2
Flags: W
HStem: 0 34<37 87.9286 192.2 241 350 388.675 495.885 540> 451 73<281.534 383.64> 740 33<24 81.8606> 777 20G<166.5 176>
VStem: 97 90<41.8788 421.859 459 732.039> 400 89<42.8661 434.207>
AnchorPoint: "Anchor-0" 135 759 basechar 0
LayerCount: 2
Fore
SplineSet
22 773 m 1
 120 782 161 797 172 797 c 0
 180 797 189 793 189 782 c 0
 189 773 188 727 188 717 c 2
 187 459 l 1
 264 502 338 524 379 524 c 0
 477 524 492 451 492 321 c 0
 492 261 489 190 489 109 c 0
 489 45 492 40 540 34 c 1
 540 0 l 1
 350 0 l 1
 350 34 l 1
 398 45 400 51 400 131 c 2
 400 310 l 2
 400 428 391 451 323 451 c 0
 280 451 213 428 187 411 c 1
 187 411 184 295 184 121 c 0
 184 50 185 37 241 34 c 1
 241 0 l 1
 37 0 l 1
 37 34 l 1
 82 37 96 50 96 76 c 0
 96 263 97 357 97 544 c 0
 97 740 94 740 24 740 c 1
 22 773 l 1
EndSplineSet
Substitution2: "Single Substitution in Latin lookup 0 subtable" H
EndChar

StartChar: i
Encoding: 105 105 74
Width: 282
GlyphClass: 2
Flags: W
HStem: 0 34<30 98.291 204.598 262> 469 33<35 92.8606> 506 20<177.5 187> 605 132<111.655 179.326>
VStem: 89 113<627.75 714.577> 107 88<42.8782 462.28>
LayerCount: 2
Fore
SplineSet
89 665 m 0xf8
 89 672 110 737 143 737 c 0
 158 737 202 712 202 676 c 0
 202 642 165 605 143 605 c 0
 123 605 89 652 89 665 c 0xf8
EndSplineSet
Refer: 212 305 S 1 0 0 1 0 0 2
Substitution2: "Single Substitution in Latin lookup 0 subtable" I
EndChar

StartChar: j
Encoding: 106 106 75
Width: 252
GlyphClass: 2
Flags: HW
HStem: 470 33<18 76.2727> 507 20<160.5 170> 605 132<93.0957 161.231>
VStem: 70 114<627.75 713.064>
LayerCount: 2
Fore
SplineSet
70 665 m 0
 70 672 92 737 125 737 c 0
 140 737 184 712 184 676 c 0
 184 642 146 605 125 605 c 0
 104 605 70 652 70 665 c 0
EndSplineSet
Refer: 267 567 S 1 0 0 1 0 0 2
Substitution2: "Single Substitution in Latin lookup 0 subtable" J
EndChar

StartChar: k
Encoding: 107 107 76
Width: 575
GlyphClass: 2
Flags: W
HStem: 0 34<32 86.2278 195.187 248> 476 34<307.046 346.996 483.773 535.937> 740 33<25 82.7215> 777 20G<166.5 176>
VStem: 103 87<47.3242 253 295 725.647> 347 189<436.5 498>
AnchorPoint: "Anchor-0" 136 759 basechar 0
LayerCount: 2
Fore
SplineSet
23 773 m 1
 121 782 161 797 172 797 c 0
 180 797 190 793 190 782 c 2
 190 776 l 1
 190 754 l 1
 190 739 l 1
 189 295 l 1
 234 295 347 414 347 459 c 0
 347 469 341 476 326 476 c 0
 314 476 307 485 307 494 c 0
 307 502 312 509 326 510 c 1
 349 508 386 507 423 507 c 0
 459 507 495 508 518 510 c 1
 530 510 536 502 536 494 c 0
 536 476 514 475 510 473 c 0
 420 438 290 302 290 302 c 1
 563 30 l 2
 572 21 575 14 575 10 c 0
 575 1 563 0 563 0 c 1
 518 0 487 0 440 -4 c 1
 207 272 242 230 187 253 c 1
 188 239 188 225 188 217 c 0
 188 160 186 123 186 97 c 0
 186 41 194 46 248 34 c 1
 248 0 l 1
 32 0 l 1
 32 34 l 1
 95 48 101 39 101 145 c 0
 101 321 103 445 103 532 c 0
 103 743 92 737 25 740 c 1
 23 773 l 1
EndSplineSet
Substitution2: "Single Substitution in Latin lookup 0 subtable" K
EndChar

StartChar: l
Encoding: 108 108 77
Width: 284
GlyphClass: 2
Flags: W
HStem: 0 34<26 88.7333 197.104 262> 739 33<31 95.7598> 778 20G<173 183>
VStem: 101 97<315.375 735.889> 104 84<46.4139 341.962>
AnchorPoint: "Anchor-0" 141 759 basechar 0
LayerCount: 2
Fore
SplineSet
26 0 m 1xe8
 26 34 l 1
 95 47 104 36 104 138 c 2
 104 323 l 2xe8
 104 397 103 501 101 652 c 1
 100 700 l 2
 99 735 85 739 44 739 c 2
 31 739 l 1
 29 772 l 1
 128 783 167 798 179 798 c 0
 187 798 196 795 196 783 c 0
 197 742 198 660 198 577 c 0xf0
 198 347 188 270 188 95 c 0
 188 42 197 42 262 34 c 1
 262 0 l 1
 26 0 l 1xe8
EndSplineSet
Substitution2: "Single Substitution in Latin lookup 0 subtable" L
EndChar

StartChar: m
Encoding: 109 109 78
Width: 834
GlyphClass: 2
Flags: MWO
HStem: 0 34<37 87.2896 196.174 241 325 371.125 483.291 529 607 654.625 761.971 811> 452 74<271.877 367.977 555.559 648.933>
VStem: 95 90<43.3615 330.48> 379 93<42.2523 424.156> 664 88<40.75 435.286>
CounterMasks: 2 30 18
AnchorPoint: "Anchor-0" 431 510 basechar 0
LayerCount: 2
Fore
SplineSet
32 493 m 1
 104 501 140 527 167 527 c 0
 185 527 190 515 190 474 c 2
 190 460 l 1
 247 492 300 526 349 526 c 0
 386 526 420 512 474 455 c 1
 508 480 574 526 641 526 c 0
 730 526 754 440 754 408 c 0
 754 284 752 201 752 147 c 0
 752 32 761 37 811 34 c 1
 811 0 l 1
 607 0 l 1
 607 34 l 1
 658 37 664 48 664 111 c 0
 664 157 663 230 663 356 c 0
 663 420 661 452 573 452 c 0
 549 452 492 424 473 414 c 1
 472 284 472 195 472 147 c 0
 472 33 481 44 529 34 c 1
 529 0 l 1
 325 0 l 1
 325 34 l 1
 376 37 379 51 379 107 c 0
 379 304 380 333 380 389 c 0
 380 427 366 452 291 452 c 0
 262 452 213 429 192 415 c 1
 188 285 185 200 185 144 c 0
 185 33 192 48 241 34 c 1
 241 0 l 1
 37 0 l 1
 37 34 l 1
 82 37 95 50 95 76 c 0
 95 445 93 433 79 445 c 0
 70 453 55 453 34 455 c 1
 32 493 l 1
EndSplineSet
Substitution2: "Single Substitution in Latin lookup 0 subtable" M
EndChar

StartChar: n
Encoding: 110 110 79
Width: 563
GlyphClass: 2
Flags: MW
HStem: 0 34<36 84.751 196.929 246 336 387.794 491.113 540> 452 73<281.534 423.201>
VStem: 91 103<150.419 426.28> 98 89<44.0745 408.197> 393 94<39.9814 436.993>
AnchorPoint: "Anchor-0" 311 510 basechar 0
LayerCount: 2
Fore
SplineSet
32 493 m 1xe8
 105 501 140 527 167 527 c 0
 185 527 191 515 191 474 c 2
 191 460 l 1
 274 507 335 525 379 525 c 0
 465 525 487 457 487 408 c 2
 487 74 l 2
 487 47 492 37 540 34 c 1
 540 0 l 1
 336 0 l 1
 336 34 l 1
 390 38 393 50 393 78 c 2
 393 395 l 2
 393 448 343 452 305 452 c 0
 281 452 222 434 194 415 c 1xe8
 191 269 187 179 187 124 c 0
 187 38 198 37 246 34 c 1
 246 0 l 1
 36 0 l 1
 36 34 l 1
 95 43 98 46 98 150 c 0xd8
 98 155 93 415 91 422 c 0
 83 454 67 452 35 455 c 1
 32 493 l 1xe8
EndSplineSet
Substitution2: "Single Substitution in Latin lookup 0 subtable" N
EndChar

StartChar: o
Encoding: 111 111 80
Width: 517
GlyphClass: 2
Flags: W
HStem: -17 71<197.571 340.48> 455 71<193.014 334.246>
VStem: 30 95<135.948 373.14> 400 91<146.519 386.783>
AnchorPoint: "Anchor-0" 268 510 basechar 0
LayerCount: 2
Fore
SplineSet
30 260 m 0
 30 330 55 389 71 415 c 0
 108 473 220 526 276 526 c 0
 381 526 491 464 491 294 c 0
 491 207 480 154 447 104 c 0
 441 96 386 24 332 0 c 0
 305 -12 276 -17 241 -17 c 0
 156 -17 30 21 30 260 c 0
125 268 m 0
 125 98 190 54 287 54 c 0
 303 54 320 55 331 59 c 0
 362 71 400 115 400 267 c 0
 400 381 373 425 300 448 c 0
 284 452 266 455 246 455 c 0
 185 455 125 455 125 268 c 0
EndSplineSet
Substitution2: "Single Substitution in Latin lookup 0 subtable" O
EndChar

StartChar: p
Encoding: 112 112 81
Width: 554
GlyphClass: 2
Flags: MW
HStem: -203 34<41 91.6376 197.452 245> -6 48<225.514 359.9> 449 77<279.533 382.104>
VStem: 98 91<-96.6598 57 80.6938 419.906 454 465.356> 99 86<-158.862 57 89.0348 398.731> 432 96<155.586 388.02>
AnchorPoint: "Anchor-0" 316 510 basechar 0
LayerCount: 2
Fore
SplineSet
30 502 m 1xf4
 129 511 169 526 180 526 c 0
 188 526 198 522 198 510 c 0
 198 506 195 464 195 454 c 1
 230 471 289 526 360 526 c 0
 377 526 528 513 528 302 c 0
 528 105 437 -6 316 -6 c 0
 207 -6 197 43 189 57 c 1xf4
 188 -4 185 -70 185 -98 c 0
 186 -155 195 -160 245 -169 c 1
 245 -203 l 1
 41 -203 l 1
 41 -171 l 1
 85 -166 99 -153 99 -128 c 0xec
 98 -34 98 64 98 415 c 0
 98 461 94 469 32 469 c 1
 30 502 l 1xf4
189 226 m 0
 189 91 207 42 297 42 c 0
 362 42 432 104 432 272 c 0
 432 403 383 449 317 449 c 0
 280 449 237 434 194 412 c 1
 193 346 189 282 189 226 c 0
EndSplineSet
Substitution2: "Single Substitution in Latin lookup 0 subtable" P
EndChar

StartChar: q
Encoding: 113 113 82
Width: 539
GlyphClass: 2
Flags: MW
HStem: -203 34<301 345.329 461.962 505> -12 72<180.984 278.115> 457 68<196.41 349.046>
VStem: 30 96<123.853 366.743> 359 96<138.907 442.554> 359 87<-155.985 59 91.0036 221.472>
AnchorPoint: "Anchor-0" 281 510 basechar 0
LayerCount: 2
Fore
SplineSet
30 230 m 0xf4
 30 381 88 435 122 458 c 0
 199 510 233 525 273 525 c 0
 320 525 359 504 505 502 c 1
 505 468 l 1
 469 453 459 447 455 398 c 0xf8
 448 317 446 111 446 -28 c 0
 446 -162 452 -154 505 -169 c 1
 505 -203 l 1
 301 -203 l 1
 301 -171 l 1
 348 -162 362 -156 362 -55 c 0
 362 -26 361 11 359 59 c 1
 306 20 248 -12 197 -12 c 0
 80 -12 30 110 30 230 c 0xf4
126 236 m 0
 126 103 185 60 245 60 c 0
 278 60 312 73 337 91 c 0
 354 103 359 128 359 152 c 2
 359 402 l 1
 359 418 l 1
 357 453 278 457 254 457 c 0
 143 457 126 335 126 236 c 0
EndSplineSet
Substitution2: "Single Substitution in Latin lookup 0 subtable" Q
EndChar

StartChar: r
Encoding: 114 114 83
Width: 398
GlyphClass: 2
Flags: MW
HStem: 0 34<25 88.1866 210.157 305> 448 75<272.087 358>
VStem: 102 91<48.8904 406.664> 346 36<373 430.263>
AnchorPoint: "Anchor-0" 220 510 basechar 0
LayerCount: 2
Fore
SplineSet
25 0 m 1
 25 34 l 1
 99 42 102 40 102 149 c 2
 102 182 l 2
 102 468 101 451 37 457 c 1
 35 495 l 1
 107 503 142 529 170 529 c 0
 187 529 193 517 193 476 c 0
 193 458 194 438 194 438 c 1
 259 501 303 523 333 523 c 0
 383 523 398 512 398 481 c 0
 398 458 390 423 382 373 c 1
 346 373 l 1
 342 429 320 448 295 448 c 0
 273 448 194 422 194 362 c 0
 194 309 193 130 193 91 c 0
 193 45 213 44 305 31 c 1
 305 0 l 1
 25 0 l 1
EndSplineSet
Substitution2: "Single Substitution in Latin lookup 0 subtable" R
EndChar

StartChar: s
Encoding: 115 115 84
Width: 387
GlyphClass: 2
Flags: W
HStem: -17 64<124.33 268.974> 466 59<130.699 264.596>
VStem: 45 67<266.144 439.484> 292 65<69.7162 168.708> 296 40<361 427.708>
AnchorPoint: "Anchor-0" 209 510 basechar 0
LayerCount: 2
Fore
SplineSet
45 358 m 0xf0
 45 385 49 412 62 432 c 0
 111 511 143 525 225 525 c 0
 247 525 276 519 302 508 c 0
 317 502 336 495 336 459 c 0
 336 449 333 420 333 361 c 1
 296 361 l 1xe8
 295 375 284 418 271 437 c 0
 256 459 226 466 196 466 c 0
 120 466 112 418 112 400 c 0
 112 283 357 344 357 158 c 0
 357 130 355 102 342 80 c 0
 322 48 310 33 278 8 c 0
 255 -9 198 -17 183 -17 c 0
 101 -17 65 2 55 19 c 0
 50 27 47 38 47 53 c 0
 47 162 50 171 74 171 c 0
 108 171 87 117 115 79 c 0
 128 61 152 47 198 47 c 0
 257 47 292 75 292 122 c 0
 292 245 45 179 45 358 c 0xf0
EndSplineSet
Substitution2: "Single Substitution in Latin lookup 0 subtable" S
EndChar

StartChar: t
Encoding: 116 116 85
Width: 335
GlyphClass: 2
Flags: MW
HStem: -15 71<153.275 255.713> 448 56<187 311>
VStem: 97 90<64.9191 448 504 592.906>
AnchorPoint: "Anchor-0" 169 573 basechar 0
LayerCount: 2
Fore
SplineSet
187 448 m 1
 187 346 184 264 184 201 c 0
 184 106 191 56 231 56 c 0
 249 56 272 66 304 85 c 1
 325 65 l 1
 268 6 223 -15 199 -15 c 0
 108 -15 94 45 94 188 c 0
 94 256 97 341 97 448 c 1
 10 448 l 1
 10 478 l 1
 97 495 l 1
 97 587 l 1
 178 610 170 611 174 611 c 0
 182 611 189 608 189 596 c 0
 189 584 187 565 187 535 c 2
 187 504 l 1
 314 504 l 1
 311 448 l 1
 187 448 l 1
EndSplineSet
Substitution2: "Single Substitution in Latin lookup 0 subtable" T
EndChar

StartChar: u
Encoding: 117 117 86
Width: 556
GlyphClass: 2
Flags: MW
HStem: -9 79<203.8 300.582> 505 20G<158.5 168 465.5 475>
VStem: 89 89<95.5679 458.802> 391 90<103.162 376.517> 393 96<200.818 511.811> 398 128<13.6172 64.9585>
AnchorPoint: "Anchor-0" 279 510 basechar 0
LayerCount: 2
Fore
SplineSet
481 127 m 0xf0
 481 84 526 43 526 25 c 0
 526 21 524 19 517 17 c 2
 517 17 447 -6 440 -6 c 0
 418 -6 404 54 398 66 c 1xe4
 306 1 232 -9 213 -9 c 0
 166 -9 114 33 99 92 c 0
 94 108 89 174 89 216 c 2
 89 311 l 2
 89 467 84 463 24 464 c 1
 22 498 l 1
 110 508 153 525 164 525 c 0
 172 525 182 522 182 510 c 0
 182 401 178 280 178 218 c 0
 178 173 180 138 188 116 c 0
 198 87 229 70 248 70 c 0
 276 70 331 82 350 92 c 0
 389 112 391 117 391 148 c 0xf0
 391 264 393 338 393 385 c 0
 393 468 387 468 355 468 c 2
 323 468 l 1
 321 501 l 1
 420 511 460 525 471 525 c 0
 479 525 489 522 489 510 c 0xe8
 489 293 481 200 481 127 c 0xf0
EndSplineSet
Substitution2: "Single Substitution in Latin lookup 0 subtable" U
EndChar

StartChar: v
Encoding: 118 118 87
Width: 492
GlyphClass: 2
Flags: MW
HStem: -15 21G<221.5 265> 509 20G<137.5 147 360 377 469.5 484>
VStem: 371 121<438 501.5>
AnchorPoint: "Anchor-0" 263 510 basechar 0
LayerCount: 2
Fore
SplineSet
0 501 m 1
 89 512 132 529 143 529 c 0
 151 529 160 526 160 514 c 0
 160 482 265 105 265 105 c 1
 368 377 371 430 371 446 c 0
 371 490 335 459 335 493 c 0
 335 508 351 511 369 511 c 0
 385 511 401 509 412 509 c 0
 442 509 461 513 478 513 c 0
 490 513 492 505 492 498 c 0
 492 483 473 492 372 241 c 0
 276 4 289 -15 241 -15 c 0
 202 -15 203 8 156 165 c 0
 122 276 91 414 59 450 c 0
 44 467 28 465 2 468 c 1
 0 501 l 1
EndSplineSet
Substitution2: "Single Substitution in Latin lookup 0 subtable" V
EndChar

StartChar: w
Encoding: 119 119 88
Width: 811
GlyphClass: 2
Flags: MW
HStem: -15 21G<220.5 264 530.5 574> 509 20G<136.5 146>
VStem: 680 131<438 501.5>
DStem2: 473 490 414 343 0.263747 -0.964592<126.234 398.006>
AnchorPoint: "Anchor-0" 423 510 basechar 0
LayerCount: 2
Fore
SplineSet
0 501 m 1
 88 512 131 529 142 529 c 4
 150 529 160 526 160 514 c 0
 160 482 265 105 265 105 c 1
 344 315 370 406 370 444 c 0
 370 465 354 483 354 495 c 0
 354 506 369 513 428 513 c 0
 474 513 471 502 473 490 c 0
 492 400 574 105 574 105 c 1
 677 377 680 430 680 446 c 0
 680 496 644 459 644 493 c 0
 644 508 660 511 678 511 c 0
 694 511 710 509 721 509 c 0
 751 509 780 513 797 513 c 0
 809 513 811 505 811 498 c 0
 811 483 782 492 681 241 c 0
 585 4 598 -15 550 -15 c 0
 511 -15 512 8 465 165 c 0
 447 223 430 289 414 343 c 1
 371 241 l 1
 276 4 288 -15 240 -15 c 0
 201 -15 203 8 155 165 c 0
 122 276 90 414 58 450 c 0
 44 467 28 465 2 468 c 1
 0 501 l 1
EndSplineSet
Substitution2: "Single Substitution in Latin lookup 0 subtable" W
EndChar

StartChar: x
Encoding: 120 120 89
Width: 453
GlyphClass: 2
Flags: MW
HStem: -18 21G<414.5 438.5> 0 34<-5 37.366 122.341 159> 494 20G<305 322 418.5 436>
VStem: 329 121<452 501>
DStem2: 190 266 223 224 0.605719 0.795678<-206.495 -13.4298 97.2305 236.48>
AnchorPoint: "Anchor-0" 241 510 basechar 0
LayerCount: 2
Back
SplineSet
-5 0 m 5x40
 -5 34 l 5
 37 37 37 34 190 266 c 5
 75 447 85 462 19 469 c 5
 17 502 l 5
 80 510 108 526 128 526 c 4x68
 158 526 169 491 252 341 c 5
 292 397 329 446 329 458 c 4
 329 494 292 470 292 497 c 4
 292 500 295 514 315 514 c 4
 329 514 344 512 372 512 c 4
 401 512 407 514 430 514 c 4
 442 514 450 509 450 493 c 4
 450 472 423 488 392 446 c 5
 358 404 294 310 284 295 c 5
 451 34 453 22 453 2 c 4
 453 -16 441 -18 436 -18 c 4x90
 393 -18 327 65 223 224 c 5
 155 119 122 74 122 54 c 4
 122 42 135 38 159 34 c 5
 159 0 l 5
 -5 0 l 5x40
EndSplineSet
Fore
SplineSet
-5 0 m 1x70
 -5 34 l 1x70
 6 35 15 35 24 40 c 0
 48 53 79 97 190 266 c 1
 75 447 85 462 19 469 c 1
 17 502 l 1
 80 510 108 526 128 526 c 0
 158 526 169 491 252 341 c 1
 292 397 329 446 329 458 c 0
 329 494 292 470 292 497 c 0
 292 500 295 514 315 514 c 0
 329 514 344 512 372 512 c 0
 401 512 407 514 430 514 c 0
 442 514 450 509 450 493 c 0
 450 472 423 488 392 446 c 1
 358 404 294 310 284 295 c 1
 451 34 453 22 453 2 c 0
 453 -16 441 -18 436 -18 c 0xb0
 393 -18 327 65 223 224 c 1
 155 119 122 74 122 54 c 0
 122 42 135 38 159 34 c 1
 159 0 l 1
 -5 0 l 1x70
EndSplineSet
Substitution2: "Single Substitution in Latin lookup 0 subtable" X
EndChar

StartChar: y
Encoding: 121 121 90
Width: 492
GlyphClass: 2
Flags: MW
HStem: 509 20G<137.5 147 360 376.5 469.5 483.5>
VStem: 371 121<438 501.5>
AnchorPoint: "Anchor-0" 264 510 basechar 0
LayerCount: 2
Fore
SplineSet
0 501 m 1
 88 512 132 529 143 529 c 0
 151 529 160 526 160 514 c 0
 160 482 265 105 265 105 c 1
 367 377 371 430 371 446 c 0
 371 490 335 459 335 493 c 0
 335 508 351 511 369 511 c 0
 384 511 401 509 412 509 c 0
 442 509 461 513 478 513 c 0
 489 513 492 505 492 498 c 0
 492 483 473 492 371 241 c 1
 193 -202 227 -208 193 -208 c 0
 144 -208 127 -196 127 -179 c 0
 127 -142 198 -76 198 -19 c 0
 198 24 94 410 59 450 c 0
 44 467 28 465 2 468 c 1
 0 501 l 1
EndSplineSet
Substitution2: "Single Substitution in Latin lookup 0 subtable" Y
EndChar

StartChar: z
Encoding: 122 122 91
Width: 516
GlyphClass: 2
Flags: W
HStem: 0 21G<35.5385 102.5> 4 47<184.003 407.875> 461 45<129.635 339.986>
VStem: 54 38<321 396.073> 436 43<-27 0.758057> 449 42<103.115 179>
DStem2: 340 457 387 362 0.580165 0.814499<-308.701 0>
AnchorPoint: "Anchor-0" 278 510 basechar 0
LayerCount: 2
Fore
SplineSet
33 26 m 1xb8
 340 457 l 1
 340 460 321 461 238 461 c 2
 233 461 l 2
 124 461 122 460 92 321 c 1
 54 321 l 1
 62 509 53 509 79 509 c 0
 110 509 110 506 234 506 c 0
 346 506 447 510 447 510 c 2
 470 510 476 500 476 489 c 0
 476 471 447 435 413 394 c 2
 387 362 l 2
 228 165 184 63 184 56 c 0
 184 52 188 51 197 51 c 0
 423 51 417 75 428 102 c 0
 438 127 441 151 449 182 c 1
 491 179 l 1x74
 485 124 479 34 479 -14 c 0
 479 -20 480 -25 480 -30 c 1
 436 -27 l 1
 436 2 427 4 337 4 c 0x78
 191 4 161 2 44 0 c 1
 33 26 l 1xb8
EndSplineSet
Substitution2: "Single Substitution in Latin lookup 0 subtable" Z
EndChar

StartChar: braceleft
Encoding: 123 123 92
Width: 388
GlyphClass: 2
Flags: W
DStem2: 212 768 284 740 0.984501 0.175382<57.1618 170.199>
LayerCount: 2
Fore
SplineSet
50 282 m 1
 56 314 l 1
 88 322 120 330 160 343 c 1
 188 383 157 713 212 768 c 1
 252 778 329 793 379 801 c 1
 388 768 l 1
 356 761 324 753 284 740 c 1
 262 708 276 500 257 384 c 0
 249 336 175 300 154 297 c 1
 175 295 249 259 257 211 c 0
 276 95 262 -113 284 -145 c 1
 324 -159 356 -167 388 -175 c 1
 379 -208 l 1
 329 -199 252 -185 212 -175 c 1
 157 -121 185 216 160 253 c 1
 120 266 82 275 50 282 c 1
EndSplineSet
EndChar

StartChar: bar
Encoding: 124 124 93
Width: 240
GlyphClass: 2
Flags: W
HStem: 777 20G<81 159>
VStem: 81 78<-203 797>
LayerCount: 2
Fore
SplineSet
81 -203 m 1
 81 797 l 1
 159 797 l 1
 159 -203 l 1
 81 -203 l 1
EndSplineSet
EndChar

StartChar: braceright
Encoding: 125 125 94
Width: 388
GlyphClass: 2
Flags: W
HStem: 768 33<7.09091 64.6787>
LayerCount: 2
Fore
SplineSet
0 -175 m 1
 32 -167 64 -159 104 -145 c 1
 126 -113 112 95 131 211 c 0
 139 259 213 295 234 297 c 1
 213 300 139 336 131 384 c 0
 112 500 126 708 104 740 c 1
 64 753 32 761 0 768 c 1
 9 801 l 1
 59 793 136 778 176 768 c 1
 231 713 200 383 228 343 c 1
 268 330 306 320 338 313 c 1
 332 281 l 1
 300 274 268 266 228 253 c 1
 203 216 231 -121 176 -175 c 1
 136 -185 59 -199 9 -208 c 1
 0 -175 l 1
EndSplineSet
EndChar

StartChar: asciitilde
Encoding: 126 126 95
Width: 480
GlyphClass: 2
Flags: W
HStem: 248 66<273.229 391.673> 311 66<88.0091 207.877>
LayerCount: 2
Fore
SplineSet
2 286 m 1x40
 35 331 76 377 141 377 c 0x40
 217 377 290 314 344 314 c 0
 368 314 388 324 424 373 c 1
 477 340 l 1
 459 312 412 248 339 248 c 0x80
 263 248 196 311 130 311 c 0
 117 311 97 308 55 252 c 1
 2 286 l 1x40
EndSplineSet
EndChar

StartChar: exclamdown
Encoding: 161 161 96
Width: 240
GlyphClass: 2
Flags: W
HStem: -10 21G<56 81.5>
VStem: 56 114<3.83773 254.272> 69 114<639.75 727.416> 110 38<407.267 547>
LayerCount: 2
Fore
SplineSet
69 689 m 0xa0
 69 710 111 759 135 759 c 0
 156 759 183 673 183 665 c 0
 183 653 157 601 131 601 c 0
 106 601 69 675 69 689 c 0xa0
170 7 m 1xc0
 135 2 95 -4 68 -10 c 1
 56 1 l 1xc0
 72 201 96 479 110 553 c 1
 143 547 l 1
 148 463 l 2x90
 156 321 170 48 170 7 c 1xc0
EndSplineSet
EndChar

StartChar: cent
Encoding: 162 162 97
Width: 480
GlyphClass: 2
Flags: W
HStem: -14 80<192.092 238> 454 71<186.875 238 279 353.486>
VStem: 49 89<129.737 403.152> 238 41<-91 -14 66 454 525 613> 382 30<354 413.985>
LayerCount: 2
Fore
SplineSet
49 240 m 0
 49 293 52 334 62 383 c 0
 67 406 92 432 97 436 c 0
 165 498 205 517 238 523 c 1
 238 613 l 1
 279 613 l 1
 279 525 l 1
 339 525 405 508 415 504 c 1
 413 484 412 364 412 354 c 1
 382 354 l 1
 382 354 372 398 366 418 c 0
 361 437 322 449 279 454 c 1
 279 63 l 1
 345 66 411 134 411 134 c 1
 432 114 l 1
 391 69 347 8 279 -10 c 1
 279 -91 l 1
 238 -91 l 1
 238 -14 l 1
 208 -14 173 -5 133 16 c 1
 100 46 83 74 63 120 c 1
 55 154 49 195 49 240 c 0
138 272 m 0
 138 167 154 84 238 66 c 1
 238 456 l 1
 158 456 138 414 138 272 c 0
EndSplineSet
EndChar

StartChar: sterling
Encoding: 163 163 98
Width: 488
GlyphClass: 2
Flags: W
HStem: 0 66<244.442 370> 0 33<36 64.0986> 3 57<140 369.188> 246 40<46 105 201 372> 483 47<240.405 351.681>
VStem: 377 23<386 426.875> 395 29<122 150>
LayerCount: 2
Fore
SplineSet
25 33 m 1x5a
 70 42 100 50 105 246 c 1
 46 246 l 1
 46 286 l 1
 105 286 l 1
 111 347 109 374 138 413 c 0
 207 506 269 530 320 530 c 0
 359 530 392 516 415 507 c 1
 400 386 l 1
 377 386 l 1
 370 416 362 440 353 461 c 1
 331 476 309 483 288 483 c 0
 248 483 214 453 208 382 c 0
 205 356 202 316 201 286 c 1
 372 286 l 1
 372 246 l 1
 198 246 l 1
 193 144 168 92 140 60 c 1x3c
 179 58 213 57 241 57 c 0
 315 57 353 63 370 66 c 1x9c
 379 86 l 1
 395 150 l 1
 424 150 l 1
 424 140 426 20 428 0 c 1x5a
 296 2 214 3 161 3 c 0x3a
 71 3 51 1 36 0 c 1
 25 33 l 1x5a
EndSplineSet
EndChar

StartChar: brokenbar
Encoding: 166 166 99
Width: 240
GlyphClass: 2
Flags: W
HStem: 777 20G<81 159>
VStem: 81 78<-203 200 394 797>
LayerCount: 2
Fore
SplineSet
81 200 m 1
 159 200 l 1
 159 -203 l 1
 81 -203 l 1
 81 200 l 1
81 394 m 1
 81 797 l 1
 159 797 l 1
 159 394 l 1
 81 394 l 1
EndSplineSet
EndChar

StartChar: section
Encoding: 167 167 100
Width: 480
GlyphClass: 2
Flags: W
HStem: -203 56<160.234 305.302> -36 20G<86 125> 721 55<175.198 316.785>
VStem: 50 84<249.849 363.656> 77 68<579.168 684.557> 86 35<-95.0886 -16> 347 68<-93.0597 8.91668> 352 78<234.588 350.724> 355 37<594 670.834>
DStem2: 271 503 179 451 0.881932 -0.471377<-135.579 -56.6261 -16.4543 133.448>
LayerCount: 2
Fore
SplineSet
50 276 m 0xf2
 50 350 73 377 128 416 c 1
 179 451 l 1
 112 489 77 543 77 604 c 0
 77 674 116 711 143 733 c 0
 178 762 217 776 275 776 c 0
 312 776 369 759 397 738 c 1
 392 703 392 621 392 594 c 1
 355 594 l 1xe880
 354 608 341 670 329 688 c 0
 315 708 274 721 241 721 c 0
 188 721 145 688 145 638 c 0
 145 590 177 554 271 503 c 2
 329 472 l 2
 380 444 430 408 430 329 c 0xe9
 430 224 384 192 307 161 c 1
 343 139 l 2
 369 123 370 121 382 105 c 0
 403 74 415 38 415 -1 c 0
 415 -33 412 -100 335 -164 c 0
 302 -191 265 -203 219 -203 c 0
 168 -203 118 -198 80 -162 c 1
 85 -127 86 -43 86 -16 c 1
 121 -16 l 1xe6
 129 -90 143 -147 233 -147 c 0
 283 -147 347 -119 347 -42 c 0
 347 -26 344 -14 341 -2 c 1
 311 42 293 56 202 107 c 1
 88 169 50 211 50 276 c 0xf2
134 303 m 0xf1
 134 259 167 235 207 214 c 2
 263 185 l 1
 268 185 352 217 352 300 c 0
 352 370 228 422 228 422 c 1
 150 399 134 352 134 303 c 0xf1
EndSplineSet
EndChar

StartChar: dieresis
Encoding: 168 168 101
Width: 500
GlyphClass: 4
Flags: W
HStem: 584 133<120.752 187.44 307.096 374.125>
VStem: 97 113<607.25 694.577> 284 114<607.25 693.064>
AnchorPoint: "Anchor-0" 243 510 mark 0
LayerCount: 2
Fore
SplineSet
97 645 m 0
 97 652 118 717 152 717 c 0
 166 717 210 692 210 656 c 0
 210 622 173 584 152 584 c 0
 131 584 97 632 97 645 c 0
284 645 m 0
 284 652 306 717 339 717 c 0
 354 717 398 692 398 656 c 0
 398 622 360 584 339 584 c 0
 318 584 284 632 284 645 c 0
EndSplineSet
EndChar

StartChar: copyright
Encoding: 169 169 102
Width: 776
GlyphClass: 2
Flags: W
HStem: -18 49<279.832 499.986> 112 61<333.464 444.899> 494 56<323.403 469.562> 638 48<278.955 494.249>
VStem: 36 49<221.595 442.467> 219 72<222.954 459.862> 488 25<411 441.917> 692 48<223.863 444.948>
LayerCount: 2
Fore
SplineSet
36 331 m 0
 36 542 204 686 385 686 c 0
 588 686 740 528 740 335 c 0
 740 130 576 -18 391 -18 c 0
 180 -18 36 150 36 331 c 0
85 332 m 0
 85 177 207 31 391 31 c 0
 554 31 692 162 692 335 c 0
 692 511 547 638 387 638 c 0
 230 638 85 515 85 332 c 0
219 319 m 0
 219 363 221 395 229 435 c 0
 232 445 236 457 238 459 c 0
 331 550 366 550 405 550 c 0
 453 550 507 536 515 533 c 1
 513 517 513 419 513 411 c 1
 488 411 l 1
 476 464 l 1
 470 484 418 494 372 494 c 0
 307 494 291 461 291 345 c 0
 291 305 294 274 300 250 c 1
 309 226 320 210 332 196 c 1
 349 182 369 173 392 173 c 0
 447 173 512 233 512 233 c 1
 529 217 l 1
 439 119 l 1
 420 116 398 112 387 112 c 0
 347 112 313 123 287 138 c 1
 260 162 246 185 230 222 c 1
 224 250 219 283 219 319 c 0
EndSplineSet
EndChar

StartChar: ordfeminine
Encoding: 170 170 103
Width: 310
GlyphClass: 2
Flags: W
HStem: 442 34<100.58 147> 449 15<280.75 310> 597 22<170.001 210> 699 35<102.722 193.38>
VStem: 40 54<480.107 564.998> 55 25<629 665.64> 210 57<506 597 615.144 684.393>
DStem2: 173 483 214 482 0.858622 0.51261<-31.6774 34.6909>
LayerCount: 2
Fore
SplineSet
40 511 m 0xba
 40 606 123 601 210 619 c 1
 210 665 l 2
 210 680 159 699 132 699 c 0
 93 699 80 629 80 629 c 1
 55 629 l 1
 62 702 l 1
 99 723 148 734 169 734 c 0
 187 734 224 723 249 708 c 0
 260 701 265 695 267 686 c 1
 265 494 l 1
 267 473 290 464 310 464 c 1
 310 449 l 1x76
 276 449 234 440 234 440 c 1
 214 482 l 1
 147 442 l 1
 124 439 l 1
 55 442 40 464 40 511 c 0xba
94 517 m 0xba
 94 489 109 476 140 476 c 0
 146 476 157 478 173 483 c 1
 211 506 l 1
 210 597 l 1
 184 592 145 579 112 565 c 1
 99 556 94 542 94 517 c 0xba
EndSplineSet
EndChar

StartChar: guillemotleft
Encoding: 171 171 104
Width: 523
GlyphClass: 2
Flags: W
LayerCount: 2
Fore
SplineSet
28 245 m 1
 89 288 235 422 250 437 c 1
 282 421 l 1
 129 242 l 1
 280 65 l 1
 251 50 l 1
 187 113 89 203 28 245 c 1
225 245 m 1
 286 288 432 422 447 437 c 1
 479 421 l 1
 325 242 l 1
 477 65 l 1
 448 50 l 1
 384 113 286 203 225 245 c 1
EndSplineSet
EndChar

StartChar: registered
Encoding: 174 174 106
Width: 625
GlyphClass: 2
Flags: W
HStem: 251 36<225.591 397.838> 372 18<179 215 264.016 301> 515 22<263.382 318> 647 23<179 214.817 269.484 345.637> 742 37<229.578 402.615>
VStem: 50 47<411.864 611.078> 218 43<391.469 520 538.521 638> 364 46<547.46 639.202> 532 43<418.619 613.533>
DStem2: 356 525 318 515 0.469007 -0.883195<-1.28089 150.984>
LayerCount: 2
Fore
SplineSet
50 515 m 0
 50 658 170 779 315 779 c 0
 481 779 575 658 575 515 c 0
 575 371 458 251 315 251 c 0
 141 251 50 371 50 515 c 0
97 515 m 0
 97 388 183 287 315 287 c 0
 442 287 532 394 532 515 c 0
 532 636 447 742 315 742 c 0
 191 742 97 636 97 515 c 0
179 372 m 1
 179 390 l 1
 201 391 218 393 218 408 c 0
 218 411 218 553 215 633 c 0
 215 645 205 647 185 648 c 1
 179 649 l 1
 179 667 l 1
 191 666 215 666 240 666 c 0
 302 666 310 670 328 670 c 2
 337 670 l 2
 374 670 410 643 410 598 c 0
 410 561 390 545 356 525 c 1
 356 525 403 442 435 396 c 1
 459 387 l 1
 459 372 l 1
 435 372 420 372 395 370 c 1
 318 515 l 1
 306 515 l 2
 291 515 274 516 262 520 c 1
 261 464 261 410 261 408 c 0
 261 393 278 391 301 390 c 1
 301 372 l 1
 289 373 263 373 240 373 c 0
 216 373 191 373 179 372 c 1
263 544 m 1
 271 539 289 537 309 537 c 0
 353 537 364 570 364 593 c 0
 364 639 328 647 322 647 c 0
 310 647 279 646 269 642 c 1
 264 638 l 1
 264 619 263 583 263 544 c 1
EndSplineSet
EndChar

StartChar: macron
Encoding: 175 175 107
Width: 500
GlyphClass: 4
Flags: W
HStem: 602 61<138 363>
VStem: 125 250
AnchorPoint: "Anchor-0" 250 510 mark 0
LayerCount: 2
Fore
SplineSet
125 602 m 1
 138 663 l 1
 375 663 l 1
 363 602 l 1
 125 602 l 1
EndSplineSet
EndChar

StartChar: degree
Encoding: 176 176 108
Width: 310
GlyphClass: 2
Flags: W
HStem: 442 36<118.011 216.705> 678 36<121.223 221.931>
VStem: 40 52<498.661 650.065> 244 51<513.65 659.866>
LayerCount: 2
Fore
SplineSet
40 566 m 0
 40 614 56 644 67 658 c 0
 89 687 152 714 183 714 c 0
 238 714 295 685 295 607 c 0
 295 542 275 514 265 503 c 0
 262 499 230 463 200 451 c 0
 185 445 168 442 149 442 c 0
 105 442 40 460 40 566 c 0
92 571 m 0
 92 498 126 478 176 478 c 0
 185 478 195 479 200 480 c 0
 231 491 244 539 244 598 c 0
 244 641 230 678 164 678 c 0
 124 678 92 669 92 571 c 0
EndSplineSet
EndChar

StartChar: plusminus
Encoding: 177 177 109
Width: 480
GlyphClass: 2
Flags: HW
HStem: 0 66<25 459> 275 66<25 208 275 459> 494 20G<208 275>
VStem: 208 66<117 275 341 501>
LayerCount: 2
Fore
SplineSet
11 275 m 1
 25 341 l 1
 208 341 l 1
 208 501 l 1
 264 514 l 1
 275 502 l 1
 274 341 l 1
 460 341 l 1
 472 330 l 1
 459 275 l 1
 275 275 l 1
 274 117 l 1
 208 103 l 1
 208 275 l 1
 11 275 l 1
EndSplineSet
Refer: 307 8722 S 1 0 0 1 0 -250 2
EndChar

StartChar: acute
Encoding: 180 180 110
Width: 500
GlyphClass: 4
Flags: W
HStem: 558 201
VStem: 144 212
AnchorPoint: "Anchor-0" 201 510 mark 0
LayerCount: 2
Fore
SplineSet
144 579 m 1
 198 635 266 719 298 759 c 1
 326 759 354 738 356 714 c 1
 318 679 218 595 162 558 c 1
 144 579 l 1
EndSplineSet
EndChar

StartChar: paragraph
Encoding: 182 182 111
Width: 480
GlyphClass: 2
Flags: W
HStem: 703 35<305 383>
VStem: 30 275<455.143 656.859> 270 35<-170 348> 383 36<-170 703>
LayerCount: 2
Fore
SplineSet
30 550 m 0xd0
 30 734 156 737 290 738 c 1
 419 738 l 1
 419 -170 l 1
 383 -170 l 1
 383 703 l 1
 305 703 l 1
 305 -170 l 1
 270 -170 l 1
 270 348 l 1xb0
 241 348 l 2
 182 348 30 388 30 550 c 0xd0
EndSplineSet
EndChar

StartChar: cedilla
Encoding: 184 184 113
Width: 500
GlyphClass: 2
Flags: W
VStem: 274 50<-154.136 -102.804>
DStem2: 220 8 234 -43 0.332259 0.943188<-43.451 0>
LayerCount: 2
Fore
SplineSet
176 -168 m 1
 243 -168 274 -149 274 -129 c 0
 274 -111 247 -93 201 -91 c 1
 189 -80 l 1
 220 8 l 1
 244 6 l 1
 234 -43 l 1
 279 -52 324 -73 324 -119 c 0
 324 -169 297 -184 265 -199 c 1
 243 -203 201 -205 178 -206 c 1
 176 -168 l 1
EndSplineSet
EndChar

StartChar: ordmasculine
Encoding: 186 186 114
Width: 350
GlyphClass: 2
Flags: W
HStem: 434 40<129.227 241.017> 694 39<121.562 235.821>
VStem: 40 58<504.206 666.831> 264 55<509.228 668.92>
LayerCount: 2
Fore
SplineSet
40 587 m 0
 40 625 55 658 65 672 c 0
 87 704 155 733 189 733 c 0
 252 733 319 699 319 606 c 0
 319 558 312 528 292 501 c 0
 289 496 255 457 223 444 c 0
 207 437 189 434 167 434 c 0
 117 434 40 455 40 587 c 0
98 591 m 0
 98 498 137 474 195 474 c 0
 205 474 216 474 222 476 c 0
 241 483 264 507 264 591 c 0
 264 653 248 678 203 690 c 0
 194 693 183 694 171 694 c 0
 134 694 98 694 98 591 c 0
EndSplineSet
EndChar

StartChar: guillemotright
Encoding: 187 187 115
Width: 523
GlyphClass: 2
Flags: W
LayerCount: 2
Fore
SplineSet
45 421 m 1
 77 437 l 1
 91 422 238 288 298 245 c 1
 238 203 140 113 75 50 c 1
 46 65 l 1
 198 242 l 1
 45 421 l 1
242 421 m 1
 273 437 l 1
 288 422 435 288 495 245 c 1
 435 203 337 113 272 50 c 1
 243 65 l 1
 395 242 l 1
 242 421 l 1
EndSplineSet
EndChar

StartChar: questiondown
Encoding: 191 191 116
Width: 445
GlyphClass: 2
Flags: W
HStem: -10 62<175.45 327.917> 359 70<178.629 304.587> 501 20G<325 360>
VStem: 56 78<102.055 314.328> 286 114<607.75 695.416> 327 33<404.206 515> 357 25<92.7403 144>
LayerCount: 2
Fore
SplineSet
286 657 m 0xf8
 286 678 328 727 352 727 c 0
 373 727 400 641 400 633 c 0
 400 621 374 569 348 569 c 0
 323 569 286 643 286 657 c 0xf8
313 402 m 1
 318 449 323 500 327 521 c 1
 360 515 l 1xf4
 371 307 l 1
 323 348 285 359 263 359 c 0
 166 359 134 309 134 224 c 0
 134 196 138 165 143 131 c 0
 152 72 176 52 228 52 c 0
 360 52 346 102 357 144 c 1
 382 144 l 1xf2
 384 104 386 74 386 51 c 0
 386 6 369 -10 265 -10 c 0
 137 -10 71 109 69 117 c 0
 61 157 56 196 56 232 c 0
 56 344 100 429 230 429 c 0
 263 429 290 418 313 402 c 1
EndSplineSet
EndChar

StartChar: AE
Encoding: 198 198 123
Width: 1033
GlyphClass: 2
Flags: W
HStem: 0 44<624.019 888.444> 0 36<0 57.2639 171.186 236 423 498.204> 249 43<270 515> 344 74<746.18 857> 370 43<620 827.504> 681 53<478.281 513 625.199 868.511> 701 37<364 433.988>
VStem: 513 104<56.1582 249 292 363.076> 515 104<83.5101 249 292 370 413 677.309> 886 55<543.303 674.819> 954 37<205 232>
DStem2: 167 210 249 249 0.493913 0.869512<-119.498 74.4118 122.173 543.778>
AnchorPoint: "Anchor-0" 568 737 basechar 0
LayerCount: 2
Fore
SplineSet
0 0 m 1x60e0
 0 36 l 1
 60 42 76 53 167 210 c 1
 430 673 l 1
 430 673 434 678 434 684 c 0
 434 698 418 697 378 700 c 2
 364 701 l 1
 364 738 l 1x62e0
 391 736 516 734 568 734 c 0x24e0
 614 734 663 735 694 737 c 0
 699 737 956 738 956 738 c 1
 968 727 l 1
 966 716 942 556 941 542 c 1
 907 542 l 1
 903 569 886 648 886 650 c 0
 882 660 879 669 870 676 c 1
 838 682 821 685 706 685 c 0
 650 685 625 680 624 651 c 0
 622 593 621 499 620 413 c 1x2ae0
 680 413 846 417 867 418 c 1
 857 344 l 1
 839 344 l 1x30e0
 798 374 648 367 619 370 c 1x28e0
 618 222 617 92 617 83 c 0
 617 50 664 44 784 44 c 0xa960
 811 44 878 47 889 56 c 0
 915 78 930 140 940 178 c 2
 954 232 l 1
 991 232 l 1
 988 191 982 10 982 0 c 1
 423 0 l 1
 423 37 l 1
 472 40 512 45 513 83 c 0x6160
 513 103 514 167 515 249 c 1
 249 249 l 1
 247 246 157 101 157 77 c 0
 157 49 195 43 236 39 c 1
 236 0 l 1
 0 0 l 1x60e0
270 292 m 1
 515 292 l 1x2ce0
 516 330 516 371 516 413 c 0
 516 499 515 588 513 661 c 0
 512 671 505 681 497 681 c 0x2d60
 493 681 488 678 485 671 c 2
 270 292 l 1
EndSplineSet
EndChar

StartChar: Ccedilla
Encoding: 199 199 124
Width: 728
GlyphClass: 2
Flags: W
HStem: -16 54<374 529.939> 690 62<316.168 559.745>
VStem: 73 100<217.04 533.668> 408 51<-154.136 -102.804> 611 34<536 591.31> 622 37<205 232>
AnchorPoint: "Anchor-0" 438 738 basechar 0
LayerCount: 2
Fore
SplineSet
73 366 m 0xf4
 73 446 84 516 108 572 c 0
 129 621 216 728 344 745 c 0
 373 749 421 752 461 752 c 0
 533 752 612 740 643 723 c 1
 655 712 l 1
 655 702 646 550 645 536 c 1
 611 536 l 1xf8
 583 635 572 663 561 671 c 1
 503 686 457 690 413 690 c 0
 217 690 173 605 173 362 c 0
 173 299 178 150 307 72 c 0
 338 53 380 38 432 38 c 0
 489 38 539 58 579 89 c 1
 583 96 598 140 608 178 c 2
 622 232 l 1
 659 232 l 1
 655 191 655 43 655 33 c 1
 597 12 520 -11 437 -16 c 1
 374 -16 l 1
 369 -43 l 1
 413 -52 459 -73 459 -119 c 0
 459 -169 431 -184 400 -199 c 1
 378 -203 336 -205 313 -206 c 1
 310 -168 l 1
 377 -168 408 -149 408 -129 c 0
 408 -111 381 -93 335 -91 c 1
 323 -80 l 1
 347 -13 l 1
 188 5 73 104 73 366 c 0xf4
EndSplineSet
EndChar

StartChar: Oslash
Encoding: 216 216 139
Width: 745
GlyphClass: 2
Flags: W
HStem: -14 66<288.356 471.263> 689 62<278.822 471.686>
VStem: 42 102<229.679 517.307> 601 103<233.93 524.41>
DStem2: 166 -45 205 -63 0.442919 0.896562<1.13572 76.8016 168.157 751.56 853.968 932.451>
LayerCount: 2
Fore
SplineSet
42 358 m 0
 42 472 69 554 106 610 c 0
 181 722 338 751 395 751 c 0
 454 751 503 741 545 722 c 1
 579 791 l 1
 620 772 l 1
 584 700 l 1
 666 644 704 543 704 411 c 0
 704 340 696 214 633 122 c 0
 561 16 417 -14 359 -14 c 0
 314 -14 274 -7 239 5 c 1
 205 -63 l 1
 166 -45 l 1
 199 23 l 1
 90 82 42 208 42 358 c 0
144 379 m 0
 144 349 144 192 240 106 c 1
 507 645 l 1
 478 669 445 682 413 687 c 0
 404 689 376 689 359 689 c 0
 237 689 144 610 144 379 c 0
601 351 m 0
 601 477 576 558 539 609 c 1
 276 79 l 1
 285 75 l 1
 327 54 357 52 405 52 c 0
 522 52 601 128 601 351 c 0
EndSplineSet
EndChar

StartChar: germandbls
Encoding: 223 223 145
Width: 598
GlyphClass: 2
Flags: W
HStem: -17 64<355.259 481.3> 0 34<26 94.368 204.625 269> 764 34<280.394 373.58>
VStem: 106 89<45.3504 497> 304 86<400.487 505.779> 407.003 76.998<598.004 733.599> 503 65<69.5493 175.614>
LayerCount: 2
Fore
SplineSet
195 131 m 0xbe
 195 37 196 43 269 34 c 1
 269 0 l 1
 26 0 l 1
 26 34 l 1x7e
 99 45 106 43 106 102 c 0
 106 137 103 310 100 448 c 2
 99 497 l 1
 99 643 168 798 324 798 c 0
 429.287109375 798 484.000976562 735 484.000976562 662.517578125 c 0
 484.000976562 583.887695312 390 545 390 469 c 0
 390 344 568 330 568 157 c 0
 568 140 568 105 553 80 c 0
 533 48 524 33 492 8 c 0
 469 -9 412 -17 397 -17 c 0
 342 -17 278 22 278 53 c 0
 278 162 281 171 305 171 c 0
 345 171 309 47 412 47 c 0
 466 47 503 71 503 122 c 0
 503 213 304 313 304 410 c 0
 304 555 407.002929688 551.333007812 407.002929688 645 c 0
 407.002929688 715 380.923828125 764 329 764 c 0
 225 764 199 593 199 519 c 0
 199 402 195 208 195 131 c 0xbe
EndSplineSet
EndChar

StartChar: ae
Encoding: 230 230 152
Width: 760
GlyphClass: 2
Flags: W
HStem: -10 67<100 243.016 478.146 618.468> 261 45<421 634.854> 462 64<149.982 290.864 464.156 589.575>
VStem: 40 90<72.9644 209.148> 66 41<342 402.881> 323 96<117.515 261 312.929 420.204> 636 93<314.49 413.086>
AnchorPoint: "Anchor-0" 397 509 basechar 0
LayerCount: 2
Fore
SplineSet
40 121 m 0xf6
 40 290 170 282 322 316 c 1
 322 340 323 364 323 376 c 0
 323 444 261 462 214 462 c 0
 143 462 133 432 107 338 c 1
 66 342 l 1xee
 70 376 50 526 259 526 c 0
 347 526 386 498 402 464 c 1
 441 496 491 523 536 523 c 0
 740 523 728 350 729 281 c 1
 703 265 666 261 624 261 c 2
 419 261 l 1
 419 162 421 62 549 62 c 0
 610 62 659 85 708 133 c 1
 730 110 l 1
 672 51 616 -15 529 -15 c 0
 438 -15 385 27 355 85 c 1
 328 67 l 1
 242 11 231 -10 138 -10 c 0
 62 -10 40 58 40 121 c 0xf6
130 131 m 0xf6
 130 78 159 57 197 57 c 0
 234 57 280 77 316 107 c 0
 323 113 323 153 323 192 c 0
 323 218 323 247 322 277 c 1
 154 221 130 225 130 131 c 0xf6
421 306 m 1
 478 306 l 2
 560 306 612 307 636 324 c 1
 636 370 622 458 532 458 c 0
 436 458 421 411 421 306 c 1
EndSplineSet
EndChar

StartChar: ccedilla
Encoding: 231 231 153
Width: 441
GlyphClass: 2
Flags: W
HStem: -15 74<217 301.797> 456 69<166.552 331.534>
VStem: 30 88<132.303 409.53> 250 51<-154.902 -102.804> 363 29<354 382>
DStem2: 190 -11 211 -43 0.340649 0.940191<-22.9325 0>
AnchorPoint: "Anchor-0" 243 509 basechar 0
LayerCount: 2
Fore
SplineSet
30 240 m 0
 30 276 36 395 54 413 c 0
 168 525 211 525 259 525 c 0
 319 525 385 508 396 504 c 1
 393 484 392 364 392 354 c 1
 363 354 l 1
 347 418 l 2
 340 443 276 456 219 456 c 0
 139 456 118 415 118 272 c 0
 118 222 123 184 130 154 c 1
 141 125 155 105 170 88 c 1
 191 71 215 59 244 59 c 0
 311 59 392 134 392 134 c 1
 413 114 l 1
 302 -7 l 1
 289 -9 l 2
 276 -12 262 -14 251 -15 c 1
 238 -15 l 1
 217 -15 l 1
 211 -43 l 1
 255 -52 301 -73 301 -119 c 0
 301 -169 273 -184 242 -199 c 1
 220 -203 178 -205 155 -206 c 1
 152 -168 l 1
 220 -168 250 -149 250 -129 c 0
 250 -111 224 -93 177 -91 c 1
 165 -80 l 1
 190 -11 l 1
 161 -6 135 4 114 16 c 1
 81 46 63 74 44 120 c 1
 36 154 30 195 30 240 c 0
EndSplineSet
EndChar

StartChar: oslash
Encoding: 248 248 168
Width: 517
GlyphClass: 2
Flags: W
HStem: -17 71<195.874 340.48> 455 71<193.014 329.204>
VStem: 30 95<134.468 373.14> 400 91<146.519 387.916>
DStem2: 92 -45 126 -63 0.44373 0.896161<0 69.5724 164.128 529.352 615.731 688.112>
LayerCount: 2
Fore
SplineSet
30 260 m 0
 30 330 55 389 71 415 c 0
 108 473 220 526 276 526 c 0
 306 526 338 520 366 509 c 1
 398 573 l 1
 433 554 l 1
 401 490 l 1
 453 455 491 393 491 294 c 0
 491 207 480 154 447 104 c 0
 441 96 386 24 332 0 c 0
 305 -12 276 -17 241 -17 c 0
 215 -17 185 -13 156 -2 c 1
 126 -63 l 1
 92 -45 l 1
 122 16 l 1
 71 52 30 123 30 260 c 0
400 267 m 0
 400 339 389 383 362 412 c 1
 195 75 l 1
 220 59 251 54 287 54 c 0
 303 54 320 55 331 59 c 0
 362 71 400 115 400 267 c 0
125 268 m 0
 125 187 139 135 165 102 c 1
 330 436 l 1
 300 448 l 1
 284 452 266 455 246 455 c 0
 185 455 125 455 125 268 c 0
EndSplineSet
EndChar

StartChar: dcaron
Encoding: 271 271 188
Width: 644
GlyphClass: 2
Flags: W
HStem: -15 86<189.112 290.844> 470 58<159.95 342.79> 741 33<285 346.812> 778 20G<428.5 437.5 565 591>
VStem: 30 88<158.667 406.166> 355 96<135.7 451.842 514 736.984> 358 86<98.8664 451.188 514 736.061> 586 68<651.696 691.856>
LayerCount: 2
Fore
SplineSet
526 710 m 1xf9
 532 729 554 779 576 798 c 1
 606 782 631 768 654 736 c 1
 654 718 632 612 568 544 c 1
 544 558 l 1
 575 604 586 642 586 659 c 0
 586 681 560 697 542 704 c 2
 526 710 l 1xf9
EndSplineSet
Refer: 69 100 S 1 0 0 1 0 0 2
EndChar

StartChar: dotlessi
Encoding: 305 305 212
Width: 282
GlyphClass: 2
Flags: W
HStem: 0 34<30 98.291 204.598 262> 469 33<35 92.8606> 506 20G<177.5 187>
VStem: 107 88<42.8782 462.28>
AnchorPoint: "Anchor-0" 137 510 basechar 0
LayerCount: 2
Fore
SplineSet
30 0 m 1
 30 34 l 1
 100 39 107 48 107 87 c 2
 107 295 l 2
 107 462 101 469 50 469 c 2
 35 469 l 1
 33 502 l 1
 131 511 172 526 183 526 c 0
 191 526 200 522 200 510 c 0
 200 467 195 347 195 75 c 0
 195 47 218 37 262 34 c 1
 262 0 l 1
 30 0 l 1
EndSplineSet
EndChar

StartChar: OE
Encoding: 338 338 231
Width: 1102
GlyphClass: 2
Flags: W
HStem: -14 49<325.409 563.185> -2 44<693.019 957.443> 343 74<801.682 925> 368 43<688 895.704> 683 53<695.251 937.393> 701 44<287.16 565.697>
VStem: 42 102<228.183 514.718> 581 105<54.2596 361.076> 584 104<81.5101 368 411 674.965> 976 34<540 621.517> 1023 37<203 230>
AnchorPoint: "Anchor-0" 637 737 basechar 0
LayerCount: 2
Fore
SplineSet
42 358 m 0x8360
 42 472 69 554 106 610 c 0
 175 714 325 745 395 745 c 0x8760
 487 745 584 732 637 732 c 0
 676 732 637 734 1025 736 c 1
 1037 725 l 1
 1034 714 1011 554 1010 540 c 1
 976 540 l 1
 971 567 955 646 954 648 c 0
 951 658 947 667 938 674 c 1
 925 677 915 678 901 680 c 0
 877 683 819 683 775 683 c 0
 718 683 693 678 693 649 c 0
 691 591 689 497 688 411 c 1x1ae0
 748 411 914 415 935 417 c 1
 925 343 l 1
 907 343 l 1x22e0
 867 372 716 365 688 368 c 1x12e0
 686 220 686 90 686 81 c 0
 686 48 733 42 853 42 c 0
 879 42 947 45 958 54 c 0
 983 76 999 138 1009 176 c 2
 1023 230 l 1
 1060 230 l 1
 1056 189 1051 8 1051 -2 c 1x5360
 672 -2 798 0 630 0 c 0
 571 0 464 -14 359 -14 c 0
 134 -14 42 151 42 358 c 0x8360
144 379 m 0
 144 126 284 35 443 35 c 0
 477 35 581 40 581 81 c 1x9760
 582 113 584 258 584 411 c 0x96e0
 584 497 584 586 581 659 c 0
 580 686 527 701 420 701 c 0
 254 701 144 634 144 379 c 0
EndSplineSet
EndChar

StartChar: oe
Encoding: 339 339 232
Width: 836
GlyphClass: 2
Flags: W
HStem: -17 71<197.571 340.557> -15 77<543.673 685.649> 261 45<497 710.808> 455 71<193.014 334.119 541.915 672.861>
VStem: 30 95<135.948 373.14> 400 95<116.614 261 306 387.781> 712 93<314.984 413.086>
AnchorPoint: "Anchor-0" 452 509 basechar 0
LayerCount: 2
Fore
SplineSet
30 260 m 0xbe
 30 330 55 389 71 415 c 0
 108 473 220 526 276 526 c 0
 342 526 410 501 452 441 c 1
 491 480 556 523 612 523 c 0
 816 523 804 350 805 281 c 1
 779 265 741 261 700 261 c 2
 495 261 l 1
 495 162 496 62 625 62 c 0
 686 62 735 85 784 133 c 1
 806 110 l 1
 748 51 691 -15 605 -15 c 0x7e
 514 -15 461 27 431 84 c 1
 365 5 317 -17 241 -17 c 0
 156 -17 30 21 30 260 c 0xbe
125 268 m 0
 125 98 190 54 287 54 c 0xbe
 303 54 320 55 331 59 c 0
 362 71 400 115 400 267 c 0
 400 381 373 425 300 448 c 0
 284 452 266 455 246 455 c 0
 185 455 125 455 125 268 c 0
497 306 m 1
 553 306 l 2
 635 306 687 307 712 324 c 1
 712 370 698 458 608 458 c 0
 512 458 497 411 497 306 c 1
EndSplineSet
EndChar

StartChar: longs
Encoding: 383 383 266
Width: 345
GlyphClass: 2
Flags: W
HStem: 0 31<26 86.2468 221.101 306> 761 37<268.089 327.446>
VStem: 106 89<48.0934 642.067> 361 43<648 684.437>
AnchorPoint: "Anchor-0" 280 758 basechar 0
LayerCount: 2
Fore
SplineSet
199 448 m 1
 197 343 195 167 195 97 c 0
 195 40 206 49 306 31 c 1
 306 0 l 1
 26 0 l 1
 26 34 l 1
 99 45 106 43 106 102 c 0
 106 137 103 310 100 448 c 2
 99 497 l 1
 99 643 168 798 324 798 c 0
 393 798 405 758 405 685 c 0
 405 673 404 661 404 648 c 1
 361 647 l 1
 346 729 322 761 298 761 c 0
 250 761 199 636 199 519 c 2
 199 448 l 1
EndSplineSet
EndChar

StartChar: uni0237
Encoding: 567 567 267
Width: 251
GlyphClass: 2
Flags: W
HStem: 470 33<18 76.2727> 507 20G<160.5 170>
AnchorPoint: "Anchor-0" 107 509 basechar 0
LayerCount: 2
Fore
SplineSet
-5 -185 m 1
 86 -71 90 -99 90 368 c 0
 90 456 81 470 33 470 c 2
 18 470 l 1
 16 503 l 1
 115 512 155 527 166 527 c 0
 174 527 183 523 183 511 c 0
 183 -53 179 -66 12 -202 c 1
 -5 -185 l 1
EndSplineSet
EndChar

StartChar: circumflex
Encoding: 710 710 268
Width: 500
GlyphClass: 4
Flags: W
HStem: 570 182
VStem: 126 248
AnchorPoint: "Anchor-0" 244 510 mark 0
LayerCount: 2
Fore
SplineSet
126 581 m 1
 172 648 227 735 237 752 c 1
 277 752 l 1
 286 735 342 631 374 583 c 1
 358 570 l 1
 245 676 l 1
 146 568 l 1
 126 581 l 1
EndSplineSet
EndChar

StartChar: caron
Encoding: 711 711 269
Width: 500
GlyphClass: 4
Flags: W
HStem: 566 182
VStem: 112 276
AnchorPoint: "Anchor-0" 240 510 mark 0
LayerCount: 2
Fore
SplineSet
112 716 m 1
 139 748 l 1
 252 642 l 1
 376 750 l 1
 388 732 l 1
 336 668 274 584 260 566 c 1
 220 566 l 1
 208 587 148 668 112 716 c 1
EndSplineSet
EndChar

StartChar: breve
Encoding: 728 728 270
Width: 500
GlyphClass: 4
Flags: W
HStem: 580 58<210.779 306.388>
VStem: 114 272
AnchorPoint: "Anchor-0" 242 510 mark 0
LayerCount: 2
Fore
SplineSet
114 686 m 1
 169 711 l 1
 181 699 l 1
 204 657 231 638 259 638 c 0
 293 638 327 666 355 713 c 1
 386 699 l 1
 344 615 290 580 240 580 c 0
 187 580 138 621 114 686 c 1
EndSplineSet
EndChar

StartChar: dotaccent
Encoding: 729 729 271
Width: 500
GlyphClass: 4
Flags: W
HStem: 585 132<214.489 281.326>
VStem: 191 113<607.989 694.577>
AnchorPoint: "Anchor-0" 248 510 mark 0
LayerCount: 2
Fore
SplineSet
191 645 m 0
 191 652 212 717 245 717 c 0
 260 717 304 692 304 656 c 0
 304 622 267 585 245 585 c 0
 225 585 191 633 191 645 c 0
EndSplineSet
EndChar

StartChar: ring
Encoding: 730 730 272
Width: 500
GlyphClass: 4
Flags: W
HStem: 564 33<219.082 286.755> 711 33<213.202 284.663>
VStem: 166 42<603.604 709.638> 294 40<602.358 703.319>
AnchorPoint: "Anchor-0" 251 510 mark 0
LayerCount: 2
Fore
SplineSet
166 656 m 0
 166 679 175 698 181 707 c 0
 195 726 235 744 256 744 c 0
 294 744 334 723 334 667 c 0
 334 638 330 621 318 604 c 0
 316 602 295 578 276 570 c 0
 266 566 256 564 243 564 c 0
 212 564 166 577 166 656 c 0
208 658 m 0
 208 609 228 597 258 597 c 0
 263 597 269 597 272 598 c 0
 282 602 294 614 294 657 c 0
 294 690 285 702 262 709 c 0
 257 710 252 711 245 711 c 0
 226 711 208 711 208 658 c 0
EndSplineSet
EndChar

StartChar: tilde
Encoding: 732 732 273
Width: 500
GlyphClass: 4
Flags: W
HStem: 641 60<166.48 239.048>
VStem: 91 318
AnchorPoint: "Anchor-0" 250 510 mark 0
LayerCount: 2
Fore
SplineSet
91 602 m 1
 110 630 181 701 201 701 c 0
 231 701 260 666 327 648 c 1
 351 655 374 672 394 691 c 1
 409 679 l 1
 390 651 329 588 309 588 c 0
 275 588 221 641 183 641 c 1
 159 634 124 607 104 588 c 1
 91 602 l 1
EndSplineSet
EndChar

StartChar: hungarumlaut
Encoding: 733 733 274
Width: 500
GlyphClass: 4
Flags: W
HStem: 558 201
VStem: 53 211
AnchorPoint: "Anchor-0" 196 510 mark 0
LayerCount: 2
Fore
SplineSet
236 579 m 1
 290 635 358 719 390 759 c 1
 418 759 446 738 447 714 c 1
 410 679 310 595 253 558 c 1
 236 579 l 1
EndSplineSet
Refer: 276 769 S 1 0 0 1 362 0 2
EndChar

StartChar: gravecmb
Encoding: 768 768 275
Width: 0
GlyphClass: 4
Flags: W
HStem: 559 201
VStem: -356 210
AnchorPoint: "Anchor-0" -201 510 mark 0
LayerCount: 2
Fore
SplineSet
-356 715 m 1
 -355 739 -327 760 -299 760 c 1
 -267 720 -199 636 -146 580 c 1
 -162 559 l 1
 -219 596 -319 680 -356 715 c 1
EndSplineSet
EndChar

StartChar: acutecmb
Encoding: 769 769 276
Width: 0
GlyphClass: 4
Flags: W
HStem: 558 201
VStem: -309 211
AnchorPoint: "Anchor-0" -252 510 mark 0
LayerCount: 2
Fore
SplineSet
-309 579 m 1
 -256 635 -188 719 -156 759 c 1
 -128 759 -100 738 -98 714 c 1
 -136 679 -236 595 -292 558 c 1
 -309 579 l 1
EndSplineSet
EndChar

StartChar: figuredash
Encoding: 8210 8210 289
Width: 480
GlyphClass: 2
Flags: W
HStem: 250 66<40 441>
LayerCount: 2
Fore
SplineSet
26 250 m 1
 40 316 l 1
 442 316 l 1
 454 305 l 1
 441 250 l 1
 26 250 l 1
EndSplineSet
EndChar

StartChar: endash
Encoding: 8211 8211 290
Width: 500
GlyphClass: 2
Flags: W
HStem: 250 66<40 461>
LayerCount: 2
Fore
SplineSet
26 250 m 1
 40 316 l 1
 462 316 l 1
 474 305 l 1
 461 250 l 1
 26 250 l 1
EndSplineSet
Substitution2: "'ss01' Style Set 1 in Latin lookup 2 subtable" figuredash
Substitution2: "'salt' Stylistic Alternatives in Latin lookup 1 subtable" figuredash
EndChar

StartChar: emdash
Encoding: 8212 8212 291
Width: 1000
GlyphClass: 2
Flags: W
HStem: 250 66<40 961>
LayerCount: 2
Fore
SplineSet
26 250 m 1
 40 316 l 1
 962 316 l 1
 974 305 l 1
 961 250 l 1
 26 250 l 1
EndSplineSet
Substitution2: "'ss01' Style Set 1 in Latin lookup 2 subtable" uni2014.alt
Substitution2: "'salt' Stylistic Alternatives in Latin lookup 1 subtable" uni2014.alt
EndChar

StartChar: quoteleft
Encoding: 8216 8216 293
Width: 240
GlyphClass: 2
Flags: W
HStem: 549 249
VStem: 66 65<629 709.179>
LayerCount: 2
Fore
SplineSet
169 783 m 0
 169 772 131 741 131 699 c 0
 131 661 174 629 174 606 c 0
 174 604 144 549 127 549 c 0
 106 549 66 614 66 644 c 0
 66 693 138 798 155 798 c 0
 157 798 169 790 169 783 c 0
EndSplineSet
EndChar

StartChar: quoteright
Encoding: 8217 8217 294
Width: 240
GlyphClass: 2
Flags: W
HStem: 549 249
VStem: 109 65<637.821 718>
LayerCount: 2
Fore
SplineSet
71 564 m 0
 71 575 109 606 109 648 c 0
 109 686 66 718 66 741 c 0
 66 743 96 798 113 798 c 0
 134 798 174 733 174 703 c 0
 174 654 102 549 85 549 c 0
 83 549 71 557 71 564 c 0
EndSplineSet
EndChar

StartChar: dagger
Encoding: 8224 8224 299
Width: 564
GlyphClass: 2
Flags: W
HStem: 464 59<33.2659 232 328 528.902> 467 49<42 232 328 529.627> 718 20G<275 308.5>
VStem: 224 111<517.27 720.129> 232 96<198.069 467 516 609.178 612.458 613.176 616.502 725>
LayerCount: 2
Fore
SplineSet
30 475 m 0xa8
 30 495 37 518 42 523 c 1xa8
 232 516 l 1x68
 227 543 224 576 224 615 c 0x70
 224 647 226 682 231 722 c 1
 243 735 265 738 285 738 c 0
 332 738 320 726 328 725 c 1x68
 333 679 335 642 335 611 c 0x70
 335 572 332 542 328 516 c 1x68
 530 523 l 1
 531 519 532 514 532 509 c 0
 532 491 525 471 522 464 c 1xa8
 328 467 l 1
 328 266 l 2
 328 -54 319 -120 282 -120 c 0
 242 -120 232 -14 232 458 c 2
 232 467 l 1x68
 31 464 l 1
 30 467 30 471 30 475 c 0xa8
EndSplineSet
EndChar

StartChar: daggerdbl
Encoding: 8225 8225 300
Width: 564
GlyphClass: 2
Flags: W
HStem: 95 59<32.9116 208.75 330 528.526> 103 48<57.25 234 330 496.25> 464 59<33.2659 232 328 528.902> 467 49<42 232 328 529.627> 718 20G<270.5 309>
VStem: 224 114<-101.175 100.73 153.577 464.376 517.27 720.129> 234 96<-115.834 1.4978 4.82373 5.54247 8.82156 102 151 298.656 303.578 312.423 317.39 467 516 609.178 612.458 613.176 616.502 734.414>
LayerCount: 2
Fore
SplineSet
30 110 m 0x8a
 30 128 37 148 40 154 c 1x8a
 234 151 l 1x4a
 227 206 224 260 224 315 c 0
 224 366 226 416 232 467 c 1x5c
 31 464 l 1
 30 467 30 471 30 475 c 0
 30 495 37 518 42 523 c 1x2c
 232 516 l 1
 227 543 224 576 224 615 c 0
 224 647 226 682 231 722 c 1
 238 729 255 738 286 738 c 0
 332 738 320 727 328 725 c 1
 333 679 335 642 335 611 c 0
 335 572 332 542 328 516 c 1x1c
 530 523 l 1
 531 519 532 514 532 509 c 0
 532 491 525 471 522 464 c 1x2c
 328 467 l 1
 335 411 338 356 338 301 c 0x1c
 338 251 335 201 330 151 c 1x5a
 531 155 l 1
 532 151 532 147 532 144 c 0
 532 124 525 101 520 95 c 1
 330 102 l 1x8a
 335 75 338 42 338 3 c 0x8c
 338 -29 336 -64 331 -103 c 1
 324 -111 307 -120 276 -120 c 0
 233 -120 241 -107 234 -106 c 1
 229 -61 227 -24 227 7 c 0
 227 46 230 76 234 103 c 1x4a
 32 95 l 1
 31 100 30 105 30 110 c 0x8a
EndSplineSet
EndChar

StartChar: bullet
Encoding: 8226 8226 301
Width: 480
GlyphClass: 2
Flags: W
HStem: 194 263<207.479 273.28>
VStem: 109 262<287.456 362.227>
LayerCount: 2
Fore
SplineSet
109 329 m 0
 109 349 214 456 232 457 c 1
 251 457 364 378 369 351 c 0
 369 348 371 326 371 322 c 0
 371 308 317 245 260 198 c 0
 257 196 254 194 248 194 c 0
 237 194 226 202 204 217 c 2
 172 239 l 1
 143 262 l 2
 121 280 109 292 109 329 c 0
EndSplineSet
EndChar

StartChar: perthousand
Encoding: 8240 8240 303
Width: 1008
GlyphClass: 2
Flags: W
HStem: -12 59<475.044 585.621 787.044 897.621> 216 59<125.044 235.621> 236 60<460.519 569.783 772.519 881.783> 465 59<110.486 219.515>
VStem: 42 50<307.854 446.904> 251 53<289.327 432.963> 392 50<79.6428 218.701> 601 53<61.173 204.54> 704 50<79.6428 218.701> 913 53<61.173 204.54>
DStem2: 149 -3 187 -27 0.547166 0.837024<0.70372 645.143>
LayerCount: 2
Fore
SplineSet
42 369 m 0xdfc0
 42 428 63 467 91 489 c 0
 119 512 156 524 172 524 c 0
 266 524 304 442 304 367 c 0
 304 350 297 318 291 303 c 0
 285 287 242 216 168 216 c 0
 87 216 42 281 42 369 c 0xdfc0
92 370 m 0
 92 309 140 275 177 275 c 0
 235 275 251 300 251 367 c 0
 251 429 208 465 168 465 c 0
 138 465 92 463 92 370 c 0
149 -3 m 1
 502 537 l 1
 540 513 l 1
 187 -27 l 1
 149 -3 l 1
392 141 m 0
 392 200 413 239 441 261 c 0
 469 284 506 296 522 296 c 0xbfc0
 617 296 654 213 654 139 c 0
 654 121 647 89 641 75 c 0
 635 59 592 -12 518 -12 c 0
 437 -12 392 52 392 141 c 0
442 142 m 0
 442 81 490 47 527 47 c 0
 585 47 601 71 601 139 c 0
 601 201 558 236 519 236 c 0
 488 236 442 235 442 142 c 0
704 141 m 0
 704 200 725 239 753 261 c 0
 781 284 818 296 834 296 c 0
 929 296 966 213 966 139 c 0
 966 121 959 89 953 75 c 0
 947 59 904 -12 830 -12 c 0
 749 -12 704 52 704 141 c 0
754 142 m 0
 754 81 802 47 839 47 c 0
 897 47 913 71 913 139 c 0
 913 201 870 236 831 236 c 0
 800 236 754 235 754 142 c 0
EndSplineSet
EndChar

StartChar: guilsinglleft
Encoding: 8249 8249 304
Width: 325
GlyphClass: 2
Flags: W
VStem: 28 253
LayerCount: 2
Fore
SplineSet
28 245 m 1
 88 288 235 422 249 437 c 1
 281 421 l 1
 128 242 l 1
 280 65 l 1
 251 50 l 1
 186 113 88 203 28 245 c 1
EndSplineSet
EndChar

StartChar: guilsinglright
Encoding: 8250 8250 305
Width: 326
GlyphClass: 2
Flags: W
VStem: 45 253
LayerCount: 2
Fore
SplineSet
45 421 m 1
 76 437 l 1
 91 422 237 288 298 245 c 1
 237 203 140 113 75 50 c 1
 46 65 l 1
 198 242 l 1
 45 421 l 1
EndSplineSet
EndChar

StartChar: Euro
Encoding: 8364 8364 306
Width: 480
GlyphClass: 2
Flags: W
HStem: -15 77<218.681 359.649> 193 47<27 73 171 340> 285 47<24 74 171 378> 458 65<208.354 367.187>
VStem: 73 96<116.625 193 240 285 332 397.028>
AnchorPoint: "Anchor-0" 211 510 basechar 0
LayerCount: 2
Fore
SplineSet
5 285 m 1
 24 332 l 1
 79 332 l 1
 84 364 90 388 95 399 c 0
 114 442 209 523 286 523 c 0
 371 523 419 491 446 451 c 1
 423 395 l 1
 407 394 l 1
 388 420 367 458 282 458 c 0
 194 458 174 419 171 332 c 1
 397 332 l 1
 378 285 l 1
 169 285 l 1
 169 261 l 1
 169 240 l 1
 359 240 l 1
 340 193 l 1
 171 193 l 1
 176 121 200 62 299 62 c 0
 360 62 409 85 458 133 c 1
 480 110 l 1
 422 51 365 -15 279 -15 c 0
 136 -15 87 89 75 193 c 1
 8 193 l 1
 27 240 l 1
 73 240 l 1
 73 246 l 2
 73 259 73 272 74 285 c 1
 5 285 l 1
EndSplineSet
EndChar

StartChar: minus
Encoding: 8722 8722 307
Width: 480
GlyphClass: 2
Flags: W
HStem: 250 66<25 459>
LayerCount: 2
Fore
SplineSet
11 250 m 1
 25 316 l 1
 460 316 l 1
 472 305 l 1
 459 250 l 1
 11 250 l 1
EndSplineSet
EndChar

StartChar: f_f
Encoding: 64256 64256 308
Width: 684
GlyphClass: 3
Flags: MW
HStem: 0 31<46 106.247 241.101 326 365 425.247 560.101 645> 448 56<219 438 538 669> 761 37<288.089 347.446 607.417 666.446>
VStem: 119 100<103.741 448 504 631.507> 126 89<48.0934 441.506> 381 43<648 684.437> 438 100<103.741 448 504 629.755> 445 89<48.0934 441.506> 700 43<648 684.437>
LayerCount: 2
Fore
SplineSet
30 448 m 1xec80
 30 482 l 1
 119 497 l 1
 119 643 188 798 344 798 c 0
 413 798 425 758 425 685 c 0
 425 673 424 661 424 648 c 1
 381 647 l 1
 366 729 342 761 318 761 c 0
 270 761 219 636 219 519 c 2
 219 504 l 1
 438 504 l 1
 440 648 509 798 663 798 c 0
 732 798 744 758 744 685 c 0
 744 673 743 661 743 648 c 1
 700 647 l 1
 685 729 661 761 637 761 c 0
 589 761 538 636 538 519 c 2
 538 504 l 1
 672 504 l 1
 669 448 l 1
 538 448 l 1xf680
 536 343 534 167 534 97 c 0
 534 40 545 49 645 31 c 1
 645 0 l 1
 365 0 l 1
 365 34 l 1
 438 45 445 43 445 102 c 0
 445 137 442 310 439 448 c 1
 219 448 l 1xf580
 217 343 215 167 215 97 c 0
 215 40 226 49 326 31 c 1
 326 0 l 1
 46 0 l 1
 46 34 l 1
 119 45 126 43 126 102 c 0
 126 137 123 310 120 448 c 1
 30 448 l 1xec80
EndSplineSet
LCarets2: 1 0 
Ligature2: "'liga' Standard Ligatures in Latin lookup 3 per glyph data 1" f f
EndChar

StartChar: f_i
Encoding: 64257 64257 309
Width: 600
GlyphClass: 3
Flags: MW
HStem: 0 34<46 114.368 230.285 326 348 416.291 522.598 580> 448 56<219 419.418> 506 20G<495 505> 763 36<299.199 391.718>
VStem: 120 99<182.739 448 504 646.972> 425 88<42.8782 448.539> 435 43<649 708.201>
LayerCount: 2
Fore
SplineSet
374 799 m 0xfc
 469 799 479 772 479 709 c 0
 479 692 478 672 478 649 c 1
 435 645 l 1xfa
 418 737 386 763 350 763 c 0
 274 763 235 665 224 598 c 0
 220 573 219 533 219 504 c 1
 340 504 l 2
 412 504 489 526 501 526 c 0
 509 526 518 522 518 510 c 0
 518 467 513 347 513 75 c 0
 513 47 536 37 580 34 c 1
 580 0 l 1
 348 0 l 1
 348 34 l 1
 418 39 425 48 425 87 c 2
 425 295 l 2
 425 435 425 449 396 449 c 0
 376 449 394 448 219 448 c 1
 217 343 215 167 215 97 c 0
 215 40 226 49 326 31 c 1
 326 0 l 1
 46 0 l 1
 46 34 l 1
 119 45 126 43 126 102 c 0
 126 137 123 310 120 448 c 1
 30 448 l 1
 30 482 l 1
 119 497 l 1
 119 663 176 799 374 799 c 0xfc
EndSplineSet
LCarets2: 1 0 
Ligature2: "'liga' Standard Ligatures in Latin lookup 3 per glyph data 1" f i
EndChar

StartChar: f_l
Encoding: 64258 64258 310
Width: 612
GlyphClass: 3
Flags: MW
HStem: 0 34<46 114.368 230.832 326 354 417.13 525.427 590> 448 56<219 350> 763 35<302.404 414.5>
VStem: 119 100<103.741 448 504 631.507> 126 90<48.0934 441.506> 432 84<46.4139 342.167> 435 91<232.427 763.348>
LayerCount: 2
Fore
SplineSet
30 448 m 1xe8
 30 482 l 1
 119 497 l 1
 119 643 188 798 344 798 c 2
 508 798 l 2
 514 798 524 795 524 783 c 0
 526 702 526 635 526 577 c 0xf2
 526 338 516 261 516 95 c 0
 516 42 526 42 590 34 c 1
 590 0 l 1
 354 0 l 1
 354 34 l 1
 424 47 432 36 432 138 c 0xe4
 432 241 435 600 435 652 c 0
 435 755 408 763 352 763 c 0
 251 763 219 615 219 519 c 2
 219 504 l 1
 353 504 l 1
 350 448 l 1
 219 448 l 1xf2
 217 343 216 167 216 97 c 0
 216 40 226 49 326 31 c 1
 326 0 l 1
 46 0 l 1
 46 34 l 1
 119 45 126 43 126 102 c 0
 126 137 123 310 120 448 c 1
 30 448 l 1xe8
EndSplineSet
LCarets2: 1 0 
Ligature2: "'liga' Standard Ligatures in Latin lookup 3 per glyph data 1" f l
EndChar

StartChar: f_f_i
Encoding: 64259 64259 311
Width: 919
GlyphClass: 3
Flags: MW
HStem: 0 34<46 114.368 230.285 326 365 433.368 549.285 645 667 735.291 841.598 899> 448 56<219 438 538 738.418> 506 20G<814 824> 763 36<289.187 379.294 618.717 710.718>
VStem: 126 89<48.0934 448 504 642.067> 381 43<648 684.437> 439 99<182.739 448 504 648.557> 744 88<42.8782 448.539> 754 43<649 708.201>
LayerCount: 2
Fore
SplineSet
693 799 m 0xff
 788 799 798 772 798 709 c 0
 798 692 797 672 797 649 c 1
 754 645 l 1xfe80
 737 737 705 763 669 763 c 0
 593 763 554 665 543 598 c 0
 539 573 538 533 538 504 c 1
 659 504 l 2
 731 504 808 526 820 526 c 0
 828 526 837 522 837 510 c 0
 837 467 832 347 832 75 c 0
 832 47 855 37 899 34 c 1
 899 0 l 1
 667 0 l 1
 667 34 l 1
 737 39 744 48 744 87 c 2
 744 295 l 2
 744 435 744 449 715 449 c 0
 695 449 713 448 538 448 c 1
 536 343 534 167 534 97 c 0
 534 40 545 49 645 31 c 1
 645 0 l 1
 365 0 l 1
 365 34 l 1
 438 45 445 43 445 102 c 0
 445 137 442 310 439 448 c 1
 219 448 l 1
 217 343 215 167 215 97 c 0
 215 40 226 49 326 31 c 1
 326 0 l 1
 46 0 l 1
 46 34 l 1
 119 45 126 43 126 102 c 0
 126 137 123 310 120 448 c 1
 30 448 l 1
 30 482 l 1
 119 497 l 1
 119 643 188 798 344 798 c 0
 413 798 425 758 425 685 c 0
 425 673 424 661 424 648 c 1
 381 647 l 1
 366 729 342 761 318 761 c 0
 270 761 219 636 219 519 c 2
 219 504 l 1
 438 504 l 1
 440 667 498 799 693 799 c 0xff
EndSplineSet
LCarets2: 2 0 0 
Ligature2: "'liga' Standard Ligatures in Latin lookup 3 per glyph data 0" f f i
EndChar

StartChar: f_f_l
Encoding: 64260 64260 312
Width: 931
GlyphClass: 3
Flags: MW
HStem: 0 34<46 114.368 230.285 326 365 433.368 549.832 645 673 736.13 844.427 909> 448 56<219 438 538 669> 761 37<288.089 347.446 615.496 735.996>
VStem: 119 100<103.741 448 504 631.507> 126 89<48.0934 441.506> 381 43<648 684.437> 438 100<103.741 448 504 629.755> 445 90<48.0934 441.506> 751 84<46.4139 342.167> 754 91<232.427 763.348>
LayerCount: 2
Fore
SplineSet
30 448 m 1xec
 30 482 l 1
 119 497 l 1
 119 643 188 798 344 798 c 0
 413 798 425 758 425 685 c 0
 425 673 424 661 424 648 c 1
 381 647 l 1
 366 729 342 761 318 761 c 0
 270 761 219 636 219 519 c 2
 219 504 l 1
 438 504 l 1
 440 648 509 798 663 798 c 2
 827 798 l 2
 833 798 843 795 843 783 c 0
 845 702 845 635 845 577 c 0xf640
 845 338 835 261 835 95 c 0
 835 42 845 42 909 34 c 1
 909 0 l 1
 673 0 l 1
 673 34 l 1
 743 47 751 36 751 138 c 0xe480
 751 241 754 600 754 652 c 0
 754 755 727 763 671 763 c 0
 570 763 538 615 538 519 c 2
 538 504 l 1
 672 504 l 1
 669 448 l 1
 538 448 l 1xe640
 536 343 535 167 535 97 c 0
 535 40 545 49 645 31 c 1
 645 0 l 1
 365 0 l 1
 365 34 l 1
 438 45 445 43 445 102 c 0
 445 137 442 310 439 448 c 1
 219 448 l 1xf5
 217 343 215 167 215 97 c 0
 215 40 226 49 326 31 c 1
 326 0 l 1
 46 0 l 1
 46 34 l 1
 119 45 126 43 126 102 c 0
 126 137 123 310 120 448 c 1
 30 448 l 1xec
EndSplineSet
LCarets2: 2 0 0 
Ligature2: "'liga' Standard Ligatures in Latin lookup 3 per glyph data 0" f f l
EndChar

StartChar: s_t
Encoding: 64262 64262 313
Width: 722
GlyphClass: 3
LigCaretCntFixed: 1
Flags: MW
HStem: -17 64<124.067 268.974> -15 71<540.275 642.713> 448 56<574 698> 466 56<130.272 216> 721 47<306.228 499.061>
VStem: 45 67<266.144 438.912> 204 37<525.319 656.108> 239 96<418.472 460> 292 65<69.7162 168.708> 484 90<64.9191 448 504 595.643> 541 36<608.025 683.046>
LayerCount: 2
Fore
SplineSet
574 535 m 2x9c40
 574 504 l 1
 701 504 l 1
 698 448 l 1
 574 448 l 1
 574 346 571 264 571 201 c 0
 571 106 578 56 618 56 c 0
 636 56 659 66 691 85 c 1
 712 65 l 1
 655 6 610 -15 586 -15 c 0
 495 -15 481 45 481 188 c 0
 481 256 484 341 484 448 c 1
 397 448 l 1
 397 478 l 1
 484 495 l 1
 484 587 l 1x6c40
 518 597 541 616 541 654 c 0
 541 690 471 721 398 721 c 0
 321 721 241 686 241 586 c 0x6e20
 241 567 244 547 251 522 c 1
 305 510 335 486 335 432 c 0
 335 413 317 390 305 390 c 0
 263 390 239 460 239 460 c 1x1d
 231 461 228 466 196 466 c 0
 120 466 112 418 112 400 c 0
 112 283 357 344 357 158 c 0
 357 130 355 102 342 80 c 0
 322 48 310 33 278 8 c 0
 255 -9 198 -17 183 -17 c 0
 101 -17 65 2 55 19 c 0
 50 27 47 38 47 53 c 0
 47 162 50 171 74 171 c 0
 123 171 58 47 198 47 c 0
 257 47 292 75 292 122 c 0
 292 245 45 179 45 358 c 0
 45 385 49 412 62 432 c 0
 103 498 132 525 216 525 c 1
 207 553 204 575 204 597 c 0
 204 715 308 768 406 768 c 0
 494 768 577 727 577 638 c 0x9ea0
 577 597 574 566 574 535 c 2x9c40
EndSplineSet
Ligature2: "'dlig' Discretionary Ligatures in Latin lookup 4 subtable" s t
LCarets2: 1 -3 
EndChar

StartChar: circumflex.cap
Encoding: 65537 -1 314
Width: 0
GlyphClass: 4
Flags: W
HStem: 566 139
VStem: -406 240
AnchorPoint: "Anchor-0" -292 509 mark 0
LayerCount: 2
Fore
SplineSet
-406 582 m 1
 -360 630 -339 657 -304 705 c 1
 -264 705 l 1
 -225 648 -205 625 -166 583 c 1
 -185 566 l 1
 -288 634 l 1
 -388 564 l 1
 -406 582 l 1
EndSplineSet
EndChar

StartChar: acute.cap
Encoding: 65539 -1 316
Width: 0
GlyphClass: 4
Flags: W
HStem: 575 174
VStem: -304 231
AnchorPoint: "Anchor-0" -232 510 mark 0
LayerCount: 2
Fore
SplineSet
-304 599 m 1
 -242 644 -160 715 -122 749 c 1
 -96 745 -73 721 -73 699 c 2
 -73 695 l 1
 -116 667 -229 602 -291 575 c 1
 -304 599 l 1
EndSplineSet
EndChar

StartChar: caron.cap
Encoding: 65540 -1 317
Width: 0
GlyphClass: 4
Flags: W
HStem: 566 139
VStem: -372 236
AnchorPoint: "Anchor-0" -259 510 mark 0
LayerCount: 2
Fore
SplineSet
-372 678 m 1
 -348 705 l 1
 -250 637 l 1
 -151 705 l 1
 -136 688 l 1
 -176 646 -227 585 -240 566 c 1
 -280 566 l 1
 -295 587 -337 639 -372 678 c 1
EndSplineSet
EndChar

StartChar: grave.cap
Encoding: 65541 -1 318
Width: 0
GlyphClass: 4
Flags: W
HStem: 575 174
VStem: -362 231
AnchorPoint: "Anchor-0" -202 510 mark 0
LayerCount: 2
Fore
SplineSet
-362 695 m 1
 -362 699 l 2
 -362 721 -339 745 -313 749 c 1
 -275 715 -193 644 -131 599 c 1
 -144 575 l 1
 -206 602 -319 667 -362 695 c 1
EndSplineSet
EndChar

StartChar: uni2014.alt
Encoding: 65543 -1 320
Width: 750
GlyphClass: 2
Flags: W
HStem: 250 66<39 710>
LayerCount: 2
Fore
SplineSet
25 250 m 1
 39 316 l 1
 711 316 l 1
 723 305 l 1
 710 250 l 1
 25 250 l 1
EndSplineSet
EndChar

StartChar: c_t
Encoding: 65544 -1 321
Width: 776
GlyphClass: 3
Flags: MW
HStem: -15 71<594.275 696.713> -14 77<177.497 300.941> 448 56<628 752> 456 69<167.201 274.831> 721 47<365.228 555.925>
VStem: 30 89<130.098 403.152> 263 37<525.873 655.922> 538 90<64.9191 448 504 595.643> 595 36<608.025 683.417>
LayerCount: 2
Fore
SplineSet
628 535 m 2x5f
 628 504 l 1
 755 504 l 1
 752 448 l 1
 628 448 l 1
 628 346 625 264 625 201 c 0
 625 106 632 56 672 56 c 0
 690 56 713 66 745 85 c 1
 766 65 l 1
 709 6 664 -15 640 -15 c 0
 549 -15 535 45 535 188 c 0
 535 256 538 341 538 448 c 1
 451 448 l 1
 451 478 l 1
 538 495 l 1
 538 587 l 1xaf
 572 597 595 616 595 654 c 0
 595 691 527 721 457 721 c 0
 380 721 300 686 300 586 c 0
 300 567 302 547 309 522 c 1
 385 511 394 456 394 440 c 0
 394 402 372 390 360 390 c 0
 339 390 314 423 303 446 c 1
 279 453 248 456 219 456 c 0
 139 456 119 414 119 272 c 0
 119 154 139 63 255 63 c 0
 322 63 392 134 392 134 c 1
 413 114 l 1
 365 61 313 -14 222 -14 c 0
 191 -14 155 -6 114 16 c 1
 81 46 64 74 44 120 c 1
 36 154 30 195 30 240 c 0
 30 293 33 334 43 383 c 0
 48 406 73 432 78 436 c 0
 175 525 215 525 260 525 c 2
 275 525 l 1
 266 552 263 575 263 597 c 0
 263 714 367 768 465 768 c 0
 550 768 631 728 631 638 c 0x5e80
 631 597 628 566 628 535 c 2x5f
EndSplineSet
LCarets2: 1 0 
Ligature2: "'dlig' Discretionary Ligatures in Latin lookup 4 subtable" c t
EndChar

StartChar: f_t
Encoding: 65545 -1 322
Width: 678
GlyphClass: 3
Flags: MW
HStem: -15 71<496.275 598.713> 0 31<46 106.247 241.101 326> 448 56<219 440 530 654> 761 37<288.089 347.446>
VStem: 126 89<48.0934 448 504 642.067> 381 43<648 684.437> 440 90<64.9191 448 504 592.906>
LayerCount: 2
Fore
SplineSet
530 448 m 1x7e
 530 346 527 264 527 201 c 0
 527 106 534 56 574 56 c 0
 592 56 615 66 647 85 c 1
 668 65 l 1
 611 6 566 -15 542 -15 c 0xbe
 451 -15 437 45 437 188 c 0
 437 256 440 341 440 448 c 1
 219 448 l 1
 217 343 215 167 215 97 c 0
 215 40 226 49 326 31 c 1
 326 0 l 1
 46 0 l 1
 46 34 l 1
 119 45 126 43 126 102 c 0
 126 137 123 310 120 448 c 1
 30 448 l 1
 30 482 l 1
 119 497 l 1
 119 643 188 798 344 798 c 0
 413 798 425 758 425 685 c 0
 425 673 424 661 424 648 c 1
 381 647 l 1
 366 729 342 761 318 761 c 0
 270 761 219 636 219 519 c 2
 219 504 l 1
 440 504 l 1
 440 587 l 1
 521 610 513 611 517 611 c 0
 525 611 532 608 532 596 c 0
 532 584 530 565 530 535 c 2
 530 504 l 1
 657 504 l 1
 654 448 l 1
 530 448 l 1x7e
EndSplineSet
LCarets2: 1 0 
Ligature2: "'liga' Standard Ligatures in Latin lookup 3 per glyph data 1" f t
EndChar

StartChar: f_f_t
Encoding: 65546 -1 323
Width: 997
GlyphClass: 3
Flags: MW
HStem: -15 71<815.275 917.713> 0 31<46 106.247 241.101 326 365 425.247 560.101 645> 448 56<219 438 538 759 849 973> 761 37<288.089 347.446 607.089 666.446>
VStem: 126 89<48.0934 448 504 642.067> 381 43<648 684.437> 438 100<103.741 448 504 636.883> 445 89<48.0934 441.506> 700 43<648 684.437> 759 90<64.9191 448 504 592.906>
LayerCount: 2
Fore
SplineSet
439 448 m 1x7dc0
 219 448 l 1
 217 343 215 167 215 97 c 0
 215 40 226 49 326 31 c 1
 326 0 l 1
 46 0 l 1x7dc0
 46 34 l 1
 119 45 126 43 126 102 c 0
 126 137 123 310 120 448 c 1
 30 448 l 1
 30 482 l 1
 119 497 l 1
 119 643 188 798 344 798 c 0
 413 798 425 758 425 685 c 0
 425 673 424 661 424 648 c 1
 381 647 l 1
 366 729 342 761 318 761 c 0
 270 761 219 636 219 519 c 2
 219 504 l 1
 438 504 l 1
 438 650 507 798 663 798 c 0
 732 798 744 758 744 685 c 0
 744 673 743 661 743 648 c 1
 700 647 l 1
 685 729 661 761 637 761 c 0
 589 761 538 636 538 519 c 2
 538 504 l 1
 759 504 l 1
 759 587 l 1
 840 610 832 611 836 611 c 0
 844 611 851 608 851 596 c 0
 851 584 849 565 849 535 c 2
 849 504 l 1
 976 504 l 1
 973 448 l 1
 849 448 l 1
 849 346 846 264 846 201 c 0
 846 106 853 56 893 56 c 0
 911 56 934 66 966 85 c 1
 987 65 l 1
 930 6 885 -15 861 -15 c 0
 770 -15 756 45 756 188 c 0
 756 256 759 341 759 448 c 1
 538 448 l 1xbec0
 536 343 534 167 534 97 c 0
 534 40 545 49 645 31 c 1
 645 0 l 1
 365 0 l 1
 365 34 l 1
 438 45 445 43 445 102 c 0
 445 137 442 310 439 448 c 1x7dc0
EndSplineSet
LCarets2: 2 0 0 
Ligature2: "'liga' Standard Ligatures in Latin lookup 3 per glyph data 0" f f t
EndChar
